<svg xmlns="http://www.w3.org/2000/svg" xmlns:xlink="http://www.w3.org/1999/xlink" width="1320" zoomAndPan="magnify" viewBox="0 0 990 479.999983" height="640" preserveAspectRatio="xMidYMid meet" version="1.0"><defs><g/><clipPath id="ffb6f5d7cc"><path d="M 338 173 L 361.894531 173 L 361.894531 197 L 338 197 Z M 338 173 " clip-rule="nonzero"/></clipPath><clipPath id="b52943fcb0"><path d="M 171 75.722656 L 196 75.722656 L 196 99 L 171 99 Z M 171 75.722656 " clip-rule="nonzero"/></clipPath><clipPath id="702493f44f"><path d="M 75.65625 244 L 99 244 L 99 268 L 75.65625 268 Z M 75.65625 244 " clip-rule="nonzero"/></clipPath><clipPath id="98f2c3aa76"><path d="M 242 341 L 266 341 L 266 364.421875 L 242 364.421875 Z M 242 341 " clip-rule="nonzero"/></clipPath><clipPath id="6fb71e5467"><path d="M 888.558594 136.398438 L 914.804688 136.398438 L 914.804688 297.972656 L 888.558594 297.972656 Z M 888.558594 136.398438 " clip-rule="nonzero"/></clipPath></defs><path fill="#d5b797" d="M 215.316406 283.324219 C 197.746094 283.324219 167.546875 282.078125 162.695312 273.726562 C 158.488281 266.480469 156.84375 238.710938 156.71875 217.132812 C 156.632812 202.789062 157.097656 168.835938 163.238281 163.285156 C 169.90625 157.261719 210.960938 156.957031 219.125 156.957031 C 230.175781 156.957031 266.78125 157.40625 273.726562 163.214844 C 280.339844 168.746094 280.972656 199.917969 280.757812 218.011719 C 280.550781 235.558594 278.949219 267.078125 274.234375 273.910156 C 267.914062 283.0625 220.679688 283.324219 215.316406 283.324219 Z M 219.125 162.554688 C 186.890625 162.554688 169.230469 165.410156 166.984375 167.4375 C 165.070312 169.238281 162.105469 184.34375 162.308594 217.214844 C 162.464844 242.976562 164.710938 266.058594 167.527344 270.910156 C 169.058594 273.546875 183.386719 277.726562 215.316406 277.726562 C 247.179688 277.726562 267.660156 273.585938 269.636719 270.726562 C 272.09375 267.164062 274.835938 246.445312 275.171875 217.941406 C 275.558594 184.589844 272.292969 169.304688 270.144531 167.507812 C 267.269531 165.109375 248.410156 162.554688 219.125 162.554688 Z M 219.125 162.554688 " fill-opacity="1" fill-rule="nonzero"/><path fill="#d5b797" d="M 312.601562 241.800781 L 277.996094 241.800781 C 276.449219 241.800781 275.199219 240.550781 275.199219 239.003906 C 275.199219 237.457031 276.449219 236.203125 277.996094 236.203125 L 312.601562 236.203125 C 314.144531 236.203125 315.398438 237.457031 315.398438 239.003906 C 315.394531 240.550781 314.144531 241.800781 312.601562 241.800781 Z M 312.601562 241.800781 " fill-opacity="1" fill-rule="nonzero"/><path fill="#d5b797" d="M 312.601562 186.6875 L 277.996094 186.6875 C 276.449219 186.6875 275.199219 185.433594 275.199219 183.886719 C 275.199219 182.34375 276.449219 181.089844 277.996094 181.089844 L 312.601562 181.089844 C 314.144531 181.089844 315.398438 182.34375 315.398438 183.886719 C 315.394531 185.433594 314.144531 186.6875 312.601562 186.6875 Z M 312.601562 186.6875 " fill-opacity="1" fill-rule="nonzero"/><path fill="#d5b797" d="M 299.222656 205.355469 L 279.992188 205.355469 C 278.445312 205.355469 277.195312 204.101562 277.195312 202.554688 C 277.195312 201.007812 278.445312 199.757812 279.992188 199.757812 L 299.222656 199.757812 C 300.765625 199.757812 302.019531 201.007812 302.019531 202.554688 C 302.019531 204.101562 300.765625 205.355469 299.222656 205.355469 Z M 299.222656 205.355469 " fill-opacity="1" fill-rule="nonzero"/><path fill="#d5b797" d="M 316.542969 225.121094 L 277.996094 225.121094 C 276.449219 225.121094 275.199219 223.871094 275.199219 222.324219 C 275.199219 220.777344 276.449219 219.527344 277.996094 219.527344 L 314.253906 219.527344 L 342.980469 191.226562 C 344.082031 190.144531 345.851562 190.15625 346.933594 191.257812 C 348.015625 192.359375 348 194.132812 346.902344 195.214844 Z M 316.542969 225.121094 " fill-opacity="1" fill-rule="nonzero"/><path fill="#d5b797" d="M 321.386719 258.027344 L 277.996094 258.027344 C 276.449219 258.027344 275.199219 256.777344 275.199219 255.230469 C 275.199219 253.683594 276.449219 252.429688 277.996094 252.429688 L 321.386719 252.429688 C 322.929688 252.429688 324.179688 253.683594 324.179688 255.230469 C 324.179688 256.777344 322.929688 258.027344 321.386719 258.027344 Z M 321.386719 258.027344 " fill-opacity="1" fill-rule="nonzero"/><path fill="#d5b797" d="M 330.167969 266.820312 C 323.785156 266.820312 318.589844 261.621094 318.589844 255.230469 C 318.589844 248.839844 323.785156 243.636719 330.167969 243.636719 C 336.550781 243.636719 341.746094 248.839844 341.746094 255.230469 C 341.746094 261.621094 336.550781 266.820312 330.167969 266.820312 Z M 330.167969 249.234375 C 326.867188 249.234375 324.179688 251.925781 324.179688 255.230469 C 324.179688 258.535156 326.867188 261.226562 330.167969 261.226562 C 333.472656 261.226562 336.15625 258.535156 336.15625 255.230469 C 336.15625 251.925781 333.472656 249.234375 330.167969 249.234375 Z M 330.167969 249.234375 " fill-opacity="1" fill-rule="nonzero"/><g clip-path="url(#ffb6f5d7cc)"><path fill="#d5b797" d="M 350.195312 196.203125 C 343.8125 196.203125 338.617188 191.003906 338.617188 184.609375 C 338.617188 178.21875 343.8125 173.019531 350.195312 173.019531 C 356.578125 173.019531 361.773438 178.21875 361.773438 184.609375 C 361.773438 191.003906 356.582031 196.203125 350.195312 196.203125 Z M 350.195312 178.617188 C 346.894531 178.617188 344.207031 181.304688 344.207031 184.613281 C 344.207031 187.917969 346.894531 190.609375 350.195312 190.609375 C 353.5 190.609375 356.183594 187.917969 356.183594 184.613281 C 356.183594 181.304688 353.5 178.617188 350.195312 178.617188 Z M 350.195312 178.617188 " fill-opacity="1" fill-rule="nonzero"/></g><path fill="#d5b797" d="M 237.808594 162.453125 C 236.265625 162.453125 235.011719 161.199219 235.011719 159.652344 L 235.011719 125.003906 C 235.011719 123.457031 236.265625 122.203125 237.808594 122.203125 C 239.351562 122.203125 240.601562 123.457031 240.601562 125.003906 L 240.601562 159.652344 C 240.601562 161.199219 239.351562 162.453125 237.808594 162.453125 Z M 237.808594 162.453125 " fill-opacity="1" fill-rule="nonzero"/><path fill="#d5b797" d="M 182.761719 162.453125 C 181.21875 162.453125 179.96875 161.199219 179.96875 159.652344 L 179.96875 125.003906 C 179.96875 123.457031 181.21875 122.203125 182.761719 122.203125 C 184.304688 122.203125 185.558594 123.457031 185.558594 125.003906 L 185.558594 159.652344 C 185.558594 161.199219 184.304688 162.453125 182.761719 162.453125 Z M 182.761719 162.453125 " fill-opacity="1" fill-rule="nonzero"/><path fill="#d5b797" d="M 201.40625 160.453125 C 199.863281 160.453125 198.613281 159.203125 198.613281 157.65625 L 198.613281 138.398438 C 198.613281 136.855469 199.863281 135.601562 201.40625 135.601562 C 202.949219 135.601562 204.203125 136.855469 204.203125 138.398438 L 204.203125 157.65625 C 204.203125 159.199219 202.949219 160.453125 201.40625 160.453125 Z M 201.40625 160.453125 " fill-opacity="1" fill-rule="nonzero"/><path fill="#d5b797" d="M 221.152344 162.453125 C 219.605469 162.453125 218.355469 161.199219 218.355469 159.652344 L 218.355469 123.351562 L 190.09375 94.585938 C 189.011719 93.484375 189.023438 91.714844 190.125 90.628906 C 191.226562 89.546875 192.996094 89.558594 194.078125 90.660156 L 223.945312 121.058594 L 223.945312 159.652344 C 223.945312 161.199219 222.695312 162.453125 221.152344 162.453125 Z M 221.152344 162.453125 " fill-opacity="1" fill-rule="nonzero"/><path fill="#d5b797" d="M 254.015625 162.453125 C 252.472656 162.453125 251.21875 161.199219 251.21875 159.652344 L 251.21875 116.207031 C 251.21875 114.664062 252.472656 113.410156 254.015625 113.410156 C 255.558594 113.410156 256.808594 114.664062 256.808594 116.207031 L 256.808594 159.652344 C 256.808594 161.199219 255.558594 162.453125 254.015625 162.453125 Z M 254.015625 162.453125 " fill-opacity="1" fill-rule="nonzero"/><path fill="#d5b797" d="M 254.015625 119.007812 C 247.628906 119.007812 242.4375 113.808594 242.4375 107.417969 C 242.4375 101.023438 247.628906 95.824219 254.015625 95.824219 C 260.398438 95.824219 265.59375 101.023438 265.59375 107.417969 C 265.59375 113.808594 260.398438 119.007812 254.015625 119.007812 Z M 254.015625 101.417969 C 250.710938 101.417969 248.027344 104.109375 248.027344 107.417969 C 248.027344 110.722656 250.710938 113.414062 254.015625 113.414062 C 257.316406 113.414062 260.003906 110.722656 260.003906 107.417969 C 260.003906 104.109375 257.316406 101.417969 254.015625 101.417969 Z M 254.015625 101.417969 " fill-opacity="1" fill-rule="nonzero"/><g clip-path="url(#b52943fcb0)"><path fill="#d5b797" d="M 183.484375 98.957031 C 177.101562 98.957031 171.90625 93.753906 171.90625 87.363281 C 171.90625 80.972656 177.101562 75.773438 183.484375 75.773438 C 189.867188 75.773438 195.0625 80.972656 195.0625 87.363281 C 195.0625 93.753906 189.867188 98.957031 183.484375 98.957031 Z M 183.484375 81.367188 C 180.183594 81.367188 177.496094 84.058594 177.496094 87.363281 C 177.496094 90.667969 180.183594 93.359375 183.484375 93.359375 C 186.785156 93.359375 189.472656 90.667969 189.472656 87.363281 C 189.472656 84.058594 186.785156 81.367188 183.484375 81.367188 Z M 183.484375 81.367188 " fill-opacity="1" fill-rule="nonzero"/></g><path fill="#d5b797" d="M 159.554688 204.054688 L 124.945312 204.054688 C 123.402344 204.054688 122.152344 202.800781 122.152344 201.257812 C 122.152344 199.710938 123.402344 198.457031 124.945312 198.457031 L 159.554688 198.457031 C 161.097656 198.457031 162.347656 199.710938 162.347656 201.257812 C 162.347656 202.800781 161.097656 204.054688 159.554688 204.054688 Z M 159.554688 204.054688 " fill-opacity="1" fill-rule="nonzero"/><path fill="#d5b797" d="M 159.554688 259.167969 L 124.945312 259.167969 C 123.402344 259.167969 122.152344 257.917969 122.152344 256.371094 C 122.152344 254.824219 123.402344 253.570312 124.945312 253.570312 L 159.554688 253.570312 C 161.097656 253.570312 162.347656 254.824219 162.347656 256.371094 C 162.347656 257.917969 161.097656 259.167969 159.554688 259.167969 Z M 159.554688 259.167969 " fill-opacity="1" fill-rule="nonzero"/><path fill="#d5b797" d="M 157.558594 240.5 L 138.324219 240.5 C 136.78125 240.5 135.53125 239.25 135.53125 237.703125 C 135.53125 236.15625 136.78125 234.90625 138.324219 234.90625 L 157.558594 234.90625 C 159.101562 234.90625 160.351562 236.15625 160.351562 237.703125 C 160.351562 239.25 159.101562 240.5 157.558594 240.5 Z M 157.558594 240.5 " fill-opacity="1" fill-rule="nonzero"/><path fill="#d5b797" d="M 92.609375 249.835938 C 91.886719 249.835938 91.164062 249.554688 90.613281 249 C 89.53125 247.898438 89.546875 246.125 90.648438 245.042969 L 121.007812 215.136719 L 159.554688 215.136719 C 161.097656 215.136719 162.347656 216.390625 162.347656 217.933594 C 162.347656 219.480469 161.097656 220.734375 159.554688 220.734375 L 123.296875 220.734375 L 94.566406 249.03125 C 94.023438 249.566406 93.316406 249.835938 92.609375 249.835938 Z M 92.609375 249.835938 " fill-opacity="1" fill-rule="nonzero"/><path fill="#d5b797" d="M 159.554688 187.828125 L 116.164062 187.828125 C 114.621094 187.828125 113.367188 186.574219 113.367188 185.03125 C 113.367188 183.484375 114.621094 182.230469 116.164062 182.230469 L 159.554688 182.230469 C 161.097656 182.230469 162.347656 183.484375 162.347656 185.03125 C 162.347656 186.574219 161.097656 187.828125 159.554688 187.828125 Z M 159.554688 187.828125 " fill-opacity="1" fill-rule="nonzero"/><path fill="#d5b797" d="M 107.378906 196.625 C 100.996094 196.625 95.800781 191.421875 95.800781 185.03125 C 95.800781 178.640625 100.996094 173.4375 107.378906 173.4375 C 113.761719 173.4375 118.957031 178.640625 118.957031 185.03125 C 118.957031 191.421875 113.761719 196.625 107.378906 196.625 Z M 107.378906 179.035156 C 104.078125 179.035156 101.390625 181.722656 101.390625 185.03125 C 101.390625 188.335938 104.078125 191.027344 107.378906 191.027344 C 110.679688 191.027344 113.367188 188.335938 113.367188 185.03125 C 113.367188 181.722656 110.679688 179.035156 107.378906 179.035156 Z M 107.378906 179.035156 " fill-opacity="1" fill-rule="nonzero"/><g clip-path="url(#702493f44f)"><path fill="#d5b797" d="M 87.351562 267.242188 C 80.96875 267.242188 75.773438 262.039062 75.773438 255.648438 C 75.773438 249.257812 80.96875 244.054688 87.351562 244.054688 C 93.734375 244.054688 98.929688 249.257812 98.929688 255.648438 C 98.929688 262.039062 93.734375 267.242188 87.351562 267.242188 Z M 87.351562 249.652344 C 84.050781 249.652344 81.363281 252.34375 81.363281 255.648438 C 81.363281 258.957031 84.050781 261.644531 87.351562 261.644531 C 90.652344 261.644531 93.339844 258.957031 93.339844 255.648438 C 93.339844 252.34375 90.65625 249.652344 87.351562 249.652344 Z M 87.351562 249.652344 " fill-opacity="1" fill-rule="nonzero"/></g><path fill="#d5b797" d="M 199.738281 318.054688 C 198.195312 318.054688 196.945312 316.800781 196.945312 315.253906 L 196.945312 280.605469 C 196.945312 279.058594 198.195312 277.804688 199.738281 277.804688 C 201.285156 277.804688 202.535156 279.058594 202.535156 280.605469 L 202.535156 315.253906 C 202.535156 316.800781 201.28125 318.054688 199.738281 318.054688 Z M 199.738281 318.054688 " fill-opacity="1" fill-rule="nonzero"/><path fill="#d5b797" d="M 254.785156 318.054688 C 253.242188 318.054688 251.988281 316.800781 251.988281 315.253906 L 251.988281 280.605469 C 251.988281 279.058594 253.242188 277.804688 254.785156 277.804688 C 256.328125 277.804688 257.578125 279.058594 257.578125 280.605469 L 257.578125 315.253906 C 257.582031 316.800781 256.328125 318.054688 254.785156 318.054688 Z M 254.785156 318.054688 " fill-opacity="1" fill-rule="nonzero"/><path fill="#d5b797" d="M 236.140625 304.65625 C 234.597656 304.65625 233.347656 303.40625 233.347656 301.859375 L 233.347656 282.601562 C 233.347656 281.058594 234.597656 279.804688 236.140625 279.804688 C 237.683594 279.804688 238.9375 281.058594 238.9375 282.601562 L 238.9375 301.859375 C 238.9375 303.402344 237.683594 304.65625 236.140625 304.65625 Z M 236.140625 304.65625 " fill-opacity="1" fill-rule="nonzero"/><path fill="#d5b797" d="M 245.464844 350.433594 C 244.742188 350.433594 244.019531 350.152344 243.472656 349.597656 L 213.601562 319.199219 L 213.601562 280.605469 C 213.601562 279.058594 214.851562 277.808594 216.398438 277.808594 C 217.941406 277.808594 219.191406 279.058594 219.191406 280.605469 L 219.191406 316.910156 L 247.457031 345.671875 C 248.539062 346.773438 248.523438 348.546875 247.421875 349.628906 C 246.878906 350.164062 246.171875 350.433594 245.464844 350.433594 Z M 245.464844 350.433594 " fill-opacity="1" fill-rule="nonzero"/><path fill="#d5b797" d="M 183.535156 326.847656 C 181.988281 326.847656 180.738281 325.597656 180.738281 324.050781 L 180.738281 280.605469 C 180.738281 279.058594 181.988281 277.804688 183.535156 277.804688 C 185.078125 277.804688 186.328125 279.058594 186.328125 280.605469 L 186.328125 324.050781 C 186.328125 325.597656 185.078125 326.847656 183.535156 326.847656 Z M 183.535156 326.847656 " fill-opacity="1" fill-rule="nonzero"/><path fill="#d5b797" d="M 183.535156 344.4375 C 177.148438 344.4375 171.953125 339.234375 171.953125 332.84375 C 171.953125 326.453125 177.148438 321.253906 183.535156 321.253906 C 189.917969 321.253906 195.109375 326.453125 195.109375 332.84375 C 195.113281 339.234375 189.917969 344.4375 183.535156 344.4375 Z M 183.535156 326.847656 C 180.230469 326.847656 177.546875 329.539062 177.546875 332.84375 C 177.546875 336.152344 180.230469 338.839844 183.535156 338.839844 C 186.835938 338.839844 189.523438 336.152344 189.523438 332.84375 C 189.523438 329.539062 186.835938 326.847656 183.535156 326.847656 Z M 183.535156 326.847656 " fill-opacity="1" fill-rule="nonzero"/><g clip-path="url(#98f2c3aa76)"><path fill="#d5b797" d="M 254.0625 364.488281 C 247.679688 364.488281 242.488281 359.289062 242.488281 352.898438 C 242.488281 346.507812 247.679688 341.304688 254.0625 341.304688 C 260.449219 341.304688 265.640625 346.507812 265.640625 352.898438 C 265.640625 359.289062 260.449219 364.488281 254.0625 364.488281 Z M 254.0625 346.902344 C 250.761719 346.902344 248.074219 349.589844 248.074219 352.898438 C 248.074219 356.203125 250.761719 358.894531 254.0625 358.894531 C 257.367188 358.894531 260.050781 356.203125 260.050781 352.898438 C 260.054688 349.589844 257.367188 346.902344 254.0625 346.902344 Z M 254.0625 346.902344 " fill-opacity="1" fill-rule="nonzero"/></g><path fill="#701c35" d="M 217.40625 231.691406 C 210.882812 231.691406 205.574219 226.375 205.574219 219.84375 C 205.574219 213.3125 210.882812 208 217.40625 208 C 223.929688 208 229.234375 213.3125 229.234375 219.84375 C 229.234375 226.375 223.929688 231.691406 217.40625 231.691406 Z M 217.40625 213.597656 C 213.964844 213.597656 211.164062 216.402344 211.164062 219.84375 C 211.164062 223.289062 213.964844 226.09375 217.40625 226.09375 C 220.847656 226.09375 223.644531 223.289062 223.644531 219.84375 C 223.644531 216.398438 220.847656 213.597656 217.40625 213.597656 Z M 217.40625 213.597656 " fill-opacity="1" fill-rule="nonzero"/><path fill="#701c35" d="M 218.972656 256.007812 C 217.460938 256.007812 213.765625 255.796875 212.054688 253.835938 C 211.535156 253.238281 210.605469 252.171875 210.035156 245.828125 C 208.863281 245.492188 207.710938 245.078125 206.589844 244.585938 C 202.058594 248.203125 200.542969 248.460938 199.863281 248.574219 C 199.632812 248.613281 199.394531 248.632812 199.15625 248.632812 C 196.703125 248.632812 194.359375 246.515625 193.179688 245.25 C 192.003906 243.996094 190.0625 241.542969 190.21875 239.230469 C 190.285156 238.21875 190.648438 236.8125 193.800781 232.917969 C 193.054688 231.570312 192.425781 230.160156 191.917969 228.699219 C 187.585938 228.140625 186.105469 227.441406 185.3125 226.878906 C 183.878906 225.859375 183.082031 223.9375 182.945312 221.171875 C 182.894531 220.234375 182.78125 215.460938 185.09375 213.441406 C 185.832031 212.792969 187.035156 212.074219 191.734375 211.554688 C 192.230469 210.007812 192.867188 208.511719 193.636719 207.078125 C 191.050781 203.699219 190.507812 202.183594 190.347656 201.234375 C 190.074219 199.613281 190.753906 197.816406 192.371094 195.902344 C 193.730469 194.289062 196.738281 191.566406 199.40625 191.566406 C 199.5 191.566406 199.59375 191.570312 199.683594 191.574219 C 200.707031 191.644531 202.136719 192.019531 206.148438 195.296875 C 207.4375 194.707031 208.765625 194.21875 210.128906 193.835938 C 210.777344 188.417969 211.632812 187.210938 212.019531 186.664062 C 213.421875 184.6875 216.332031 184.273438 218.523438 184.273438 C 220.035156 184.273438 223.730469 184.484375 225.441406 186.445312 C 225.972656 187.054688 226.925781 188.148438 227.492188 194.796875 C 228.464844 195.191406 229.417969 195.644531 230.339844 196.148438 C 235.292969 192.101562 236.964844 191.820312 237.632812 191.707031 C 237.863281 191.667969 238.101562 191.644531 238.339844 191.644531 C 240.792969 191.644531 243.136719 193.765625 244.316406 195.027344 C 245.492188 196.285156 247.4375 198.738281 247.28125 201.050781 C 247.226562 201.855469 247.113281 203.472656 242.164062 209.195312 C 242.460938 209.910156 242.742188 210.644531 242.976562 211.285156 C 246.210938 211.566406 250.4375 212.160156 252.183594 213.402344 C 253.617188 214.421875 254.414062 216.34375 254.554688 219.109375 C 254.601562 220.046875 254.71875 224.820312 252.40625 226.839844 C 251.785156 227.382812 250.539062 228.46875 242.777344 228.996094 C 242.535156 229.679688 242.28125 230.359375 242.054688 230.9375 C 244.15625 233.433594 246.789062 236.90625 247.148438 239.046875 C 247.425781 240.667969 246.746094 242.464844 245.125 244.378906 C 243.769531 245.992188 240.757812 248.714844 238.089844 248.714844 C 237.996094 248.714844 237.902344 248.710938 237.816406 248.707031 C 237.023438 248.652344 235.445312 248.542969 229.902344 243.777344 C 229.132812 244.179688 228.34375 244.546875 227.542969 244.871094 C 226.898438 251.613281 225.84375 253.101562 225.476562 253.617188 C 224.074219 255.59375 221.167969 256.007812 218.972656 256.007812 Z M 216.316406 250.0625 C 216.808594 250.222656 217.777344 250.414062 218.972656 250.414062 C 220.019531 250.414062 220.691406 250.269531 221.011719 250.164062 C 221.347656 249.242188 221.839844 246.445312 222.117188 242.652344 L 222.257812 240.78125 L 224.039062 240.199219 C 225.695312 239.660156 227.28125 238.914062 228.761719 237.984375 L 230.542969 236.859375 L 232.113281 238.269531 C 235.242188 241.078125 237.300781 242.558594 238.171875 243.027344 C 239.238281 242.519531 241.109375 240.734375 241.558594 239.777344 C 241.074219 238.710938 238.929688 235.816406 236.734375 233.332031 L 235.578125 232.019531 L 236.25 230.402344 C 236.261719 230.371094 237.519531 227.339844 238.011719 225.570312 L 238.550781 223.621094 L 240.566406 223.519531 C 244.574219 223.324219 247.539062 222.910156 248.648438 222.574219 C 249.042969 221.460938 249.105469 218.871094 248.75 217.878906 C 247.648438 217.46875 244.089844 216.9375 240.785156 216.734375 L 238.910156 216.617188 L 238.308594 214.839844 C 237.996094 213.921875 237.050781 211.265625 236.390625 209.992188 L 235.496094 208.273438 L 236.789062 206.832031 C 239.636719 203.660156 241.132812 201.574219 241.605469 200.691406 C 241.101562 199.625 239.320312 197.753906 238.367188 197.304688 C 237.609375 197.660156 235.558594 199.011719 232.429688 201.695312 L 230.835938 203.058594 L 229.082031 201.910156 C 227.492188 200.871094 225.777344 200.050781 223.980469 199.46875 L 222.171875 198.882812 L 222.050781 196.984375 C 221.800781 193.09375 221.421875 191.03125 221.179688 190.21875 C 220.691406 190.058594 219.722656 189.867188 218.523438 189.867188 C 217.484375 189.867188 216.8125 190.007812 216.492188 190.113281 C 216.261719 190.765625 215.824219 192.667969 215.484375 196.351562 L 215.292969 198.4375 L 213.242188 198.839844 C 211.09375 199.265625 209.03125 200.015625 207.113281 201.074219 L 205.417969 202.007812 L 203.945312 200.746094 C 201.214844 198.402344 199.871094 197.550781 199.324219 197.257812 C 198.257812 197.765625 196.40625 199.53125 195.949219 200.488281 C 196.167969 200.945312 196.90625 202.269531 199.183594 205.070312 L 200.460938 206.640625 L 199.375 208.34375 C 198.097656 210.339844 197.175781 212.519531 196.625 214.8125 L 196.152344 216.777344 L 194.136719 216.941406 C 190.867188 217.214844 189.421875 217.542969 188.855469 217.710938 C 188.460938 218.828125 188.398438 221.398438 188.753906 222.394531 C 189.351562 222.605469 191.058594 223.011719 194.339844 223.34375 L 196.257812 223.539062 L 196.757812 225.402344 C 197.347656 227.617188 198.292969 229.714844 199.5625 231.636719 L 200.722656 233.394531 L 199.351562 235 C 197.035156 237.710938 196.191406 239.046875 195.898438 239.59375 C 196.40625 240.660156 198.179688 242.523438 199.132812 242.976562 C 199.761719 242.675781 201.460938 241.613281 204.410156 239.148438 L 205.84375 237.945312 L 207.5 238.816406 C 209.304688 239.765625 211.230469 240.445312 213.214844 240.839844 L 215.316406 241.257812 L 215.457031 243.402344 C 215.707031 247.226562 216.082031 249.253906 216.316406 250.0625 Z M 216.316406 250.0625 " fill-opacity="1" fill-rule="nonzero"/><g fill="#701c35" fill-opacity="1"><g transform="translate(381.073349, 270.155521)"><g><path d="M 101.515625 0 L 101.375 -59.21875 L 72.328125 -10.4375 L 62.046875 -10.4375 L 33.140625 -57.953125 L 33.140625 0 L 11.703125 0 L 11.703125 -98.703125 L 30.59375 -98.703125 L 67.53125 -37.359375 L 103.921875 -98.703125 L 122.671875 -98.703125 L 122.953125 0 Z M 101.515625 0 "/></g></g></g><g fill="#701c35" fill-opacity="1"><g transform="translate(515.715854, 270.155521)"><g><path d="M 46.25 1.125 C 38.257812 1.125 31.09375 -0.539062 24.75 -3.875 C 18.40625 -7.21875 13.445312 -11.847656 9.875 -17.765625 C 6.300781 -23.691406 4.515625 -30.410156 4.515625 -37.921875 C 4.515625 -45.441406 6.300781 -52.160156 9.875 -58.078125 C 13.445312 -64.003906 18.40625 -68.632812 24.75 -71.96875 C 31.09375 -75.3125 38.257812 -76.984375 46.25 -76.984375 C 54.238281 -76.984375 61.378906 -75.3125 67.671875 -71.96875 C 73.972656 -68.632812 78.910156 -64.003906 82.484375 -58.078125 C 86.054688 -52.160156 87.84375 -45.441406 87.84375 -37.921875 C 87.84375 -30.410156 86.054688 -23.691406 82.484375 -17.765625 C 78.910156 -11.847656 73.972656 -7.21875 67.671875 -3.875 C 61.378906 -0.539062 54.238281 1.125 46.25 1.125 Z M 46.25 -16.921875 C 51.882812 -16.921875 56.507812 -18.820312 60.125 -22.625 C 63.75 -26.4375 65.5625 -31.535156 65.5625 -37.921875 C 65.5625 -44.316406 63.75 -49.414062 60.125 -53.21875 C 56.507812 -57.03125 51.882812 -58.9375 46.25 -58.9375 C 40.601562 -58.9375 35.945312 -57.03125 32.28125 -53.21875 C 28.625 -49.414062 26.796875 -44.316406 26.796875 -37.921875 C 26.796875 -31.535156 28.625 -26.4375 32.28125 -22.625 C 35.945312 -18.820312 40.601562 -16.921875 46.25 -16.921875 Z M 46.25 -16.921875 "/></g></g></g><g fill="#701c35" fill-opacity="1"><g transform="translate(608.062267, 270.155521)"><g><path d="M 87.421875 -104.625 L 87.421875 0 L 66.40625 0 L 66.40625 -8.734375 C 60.957031 -2.160156 53.0625 1.125 42.71875 1.125 C 35.570312 1.125 29.109375 -0.46875 23.328125 -3.65625 C 17.546875 -6.851562 13.007812 -11.410156 9.71875 -17.328125 C 6.4375 -23.253906 4.796875 -30.117188 4.796875 -37.921875 C 4.796875 -45.722656 6.4375 -52.582031 9.71875 -58.5 C 13.007812 -64.425781 17.546875 -68.988281 23.328125 -72.1875 C 29.109375 -75.382812 35.570312 -76.984375 42.71875 -76.984375 C 52.40625 -76.984375 59.972656 -73.929688 65.421875 -67.828125 L 65.421875 -104.625 Z M 46.53125 -16.921875 C 52.070312 -16.921875 56.675781 -18.820312 60.34375 -22.625 C 64.007812 -26.4375 65.84375 -31.535156 65.84375 -37.921875 C 65.84375 -44.316406 64.007812 -49.414062 60.34375 -53.21875 C 56.675781 -57.03125 52.070312 -58.9375 46.53125 -58.9375 C 40.882812 -58.9375 36.226562 -57.03125 32.5625 -53.21875 C 28.90625 -49.414062 27.078125 -44.316406 27.078125 -37.921875 C 27.078125 -31.535156 28.90625 -26.4375 32.5625 -22.625 C 36.226562 -18.820312 40.882812 -16.921875 46.53125 -16.921875 Z M 46.53125 -16.921875 "/></g></g></g><g fill="#701c35" fill-opacity="1"><g transform="translate(705.625218, 270.155521)"><g><path d="M 7.328125 -48.5 L 47.234375 -48.5 L 47.234375 -30.875 L 7.328125 -30.875 Z M 7.328125 -48.5 "/></g></g></g><g fill="#701c35" fill-opacity="1"><g transform="translate(760.046163, 270.155521)"><g><path d="M 88.125 -18.328125 L 88.125 0 L 11.703125 0 L 11.703125 -98.703125 L 86.296875 -98.703125 L 86.296875 -80.375 L 34.40625 -80.375 L 34.40625 -58.9375 L 80.234375 -58.9375 L 80.234375 -41.171875 L 34.40625 -41.171875 L 34.40625 -18.328125 Z M 88.125 -18.328125 "/></g></g></g><g clip-path="url(#6fb71e5467)"><path fill="#d5b797" d="M 888.558594 136.402344 L 914.804688 136.402344 L 914.804688 297.96875 L 888.558594 297.96875 L 888.558594 136.402344 " fill-opacity="1" fill-rule="nonzero"/></g><g fill="#701c35" fill-opacity="1"><g transform="translate(366.757889, 353.621692)"><g><path d="M 22.5625 0 L 22.53125 -13.15625 L 16.078125 -2.3125 L 13.78125 -2.3125 L 7.359375 -12.875 L 7.359375 0 L 2.59375 0 L 2.59375 -21.9375 L 6.796875 -21.9375 L 15 -8.296875 L 23.09375 -21.9375 L 27.25 -21.9375 L 27.3125 0 Z M 22.5625 0 "/></g></g></g><g fill="#701c35" fill-opacity="1"><g transform="translate(396.672559, 353.621692)"><g><path d="M 10.28125 0.25 C 8.5 0.25 6.90625 -0.117188 5.5 -0.859375 C 4.09375 -1.597656 2.988281 -2.625 2.1875 -3.9375 C 1.394531 -5.257812 1 -6.753906 1 -8.421875 C 1 -10.097656 1.394531 -11.59375 2.1875 -12.90625 C 2.988281 -14.21875 4.09375 -15.242188 5.5 -15.984375 C 6.90625 -16.734375 8.5 -17.109375 10.28125 -17.109375 C 12.050781 -17.109375 13.632812 -16.734375 15.03125 -15.984375 C 16.4375 -15.242188 17.535156 -14.21875 18.328125 -12.90625 C 19.117188 -11.59375 19.515625 -10.097656 19.515625 -8.421875 C 19.515625 -6.753906 19.117188 -5.257812 18.328125 -3.9375 C 17.535156 -2.625 16.4375 -1.597656 15.03125 -0.859375 C 13.632812 -0.117188 12.050781 0.25 10.28125 0.25 Z M 10.28125 -3.765625 C 11.53125 -3.765625 12.554688 -4.1875 13.359375 -5.03125 C 14.160156 -5.875 14.5625 -7.003906 14.5625 -8.421875 C 14.5625 -9.847656 14.160156 -10.984375 13.359375 -11.828125 C 12.554688 -12.671875 11.53125 -13.09375 10.28125 -13.09375 C 9.019531 -13.09375 7.984375 -12.671875 7.171875 -11.828125 C 6.359375 -10.984375 5.953125 -9.847656 5.953125 -8.421875 C 5.953125 -7.003906 6.359375 -5.875 7.171875 -5.03125 C 7.984375 -4.1875 9.019531 -3.765625 10.28125 -3.765625 Z M 11.59375 -23.53125 L 16.859375 -23.53125 L 11.1875 -19.015625 L 7.359375 -19.015625 Z M 11.59375 -23.53125 "/></g></g></g><g fill="#701c35" fill-opacity="1"><g transform="translate(417.189949, 353.621692)"><g><path d="M 19.421875 -23.25 L 19.421875 0 L 14.75 0 L 14.75 -1.9375 C 13.539062 -0.476562 11.789062 0.25 9.5 0.25 C 7.90625 0.25 6.46875 -0.101562 5.1875 -0.8125 C 3.90625 -1.519531 2.894531 -2.53125 2.15625 -3.84375 C 1.425781 -5.164062 1.0625 -6.691406 1.0625 -8.421875 C 1.0625 -10.160156 1.425781 -11.6875 2.15625 -13 C 2.894531 -14.3125 3.90625 -15.320312 5.1875 -16.03125 C 6.46875 -16.75 7.90625 -17.109375 9.5 -17.109375 C 11.644531 -17.109375 13.320312 -16.425781 14.53125 -15.0625 L 14.53125 -23.25 Z M 10.34375 -3.765625 C 11.570312 -3.765625 12.59375 -4.1875 13.40625 -5.03125 C 14.21875 -5.875 14.625 -7.003906 14.625 -8.421875 C 14.625 -9.847656 14.21875 -10.984375 13.40625 -11.828125 C 12.59375 -12.671875 11.570312 -13.09375 10.34375 -13.09375 C 9.082031 -13.09375 8.046875 -12.671875 7.234375 -11.828125 C 6.421875 -10.984375 6.015625 -9.847656 6.015625 -8.421875 C 6.015625 -7.003906 6.421875 -5.875 7.234375 -5.03125 C 8.046875 -4.1875 9.082031 -3.765625 10.34375 -3.765625 Z M 10.34375 -3.765625 "/></g></g></g><g fill="#701c35" fill-opacity="1"><g transform="translate(438.866339, 353.621692)"><g><path d="M 19.234375 -16.859375 L 19.234375 0 L 14.59375 0 L 14.59375 -2 C 13.945312 -1.269531 13.175781 -0.710938 12.28125 -0.328125 C 11.382812 0.0546875 10.410156 0.25 9.359375 0.25 C 7.148438 0.25 5.394531 -0.382812 4.09375 -1.65625 C 2.800781 -2.9375 2.15625 -4.828125 2.15625 -7.328125 L 2.15625 -16.859375 L 7.046875 -16.859375 L 7.046875 -8.046875 C 7.046875 -5.335938 8.1875 -3.984375 10.46875 -3.984375 C 11.632812 -3.984375 12.570312 -4.363281 13.28125 -5.125 C 13.988281 -5.882812 14.34375 -7.015625 14.34375 -8.515625 L 14.34375 -16.859375 Z M 19.234375 -16.859375 "/></g></g></g><g fill="#701c35" fill-opacity="1"><g transform="translate(460.386105, 353.621692)"><g><path d="M 2.25 -23.25 L 7.140625 -23.25 L 7.140625 0 L 2.25 0 Z M 2.25 -23.25 "/></g></g></g><g fill="#701c35" fill-opacity="1"><g transform="translate(469.814709, 353.621692)"><g><path d="M 10.28125 0.25 C 8.5 0.25 6.90625 -0.117188 5.5 -0.859375 C 4.09375 -1.597656 2.988281 -2.625 2.1875 -3.9375 C 1.394531 -5.257812 1 -6.753906 1 -8.421875 C 1 -10.097656 1.394531 -11.59375 2.1875 -12.90625 C 2.988281 -14.21875 4.09375 -15.242188 5.5 -15.984375 C 6.90625 -16.734375 8.5 -17.109375 10.28125 -17.109375 C 12.050781 -17.109375 13.632812 -16.734375 15.03125 -15.984375 C 16.4375 -15.242188 17.535156 -14.21875 18.328125 -12.90625 C 19.117188 -11.59375 19.515625 -10.097656 19.515625 -8.421875 C 19.515625 -6.753906 19.117188 -5.257812 18.328125 -3.9375 C 17.535156 -2.625 16.4375 -1.597656 15.03125 -0.859375 C 13.632812 -0.117188 12.050781 0.25 10.28125 0.25 Z M 10.28125 -3.765625 C 11.53125 -3.765625 12.554688 -4.1875 13.359375 -5.03125 C 14.160156 -5.875 14.5625 -7.003906 14.5625 -8.421875 C 14.5625 -9.847656 14.160156 -10.984375 13.359375 -11.828125 C 12.554688 -12.671875 11.53125 -13.09375 10.28125 -13.09375 C 9.019531 -13.09375 7.984375 -12.671875 7.171875 -11.828125 C 6.359375 -10.984375 5.953125 -9.847656 5.953125 -8.421875 C 5.953125 -7.003906 6.359375 -5.875 7.171875 -5.03125 C 7.984375 -4.1875 9.019531 -3.765625 10.28125 -3.765625 Z M 10.28125 -3.765625 "/></g></g></g><g fill="#701c35" fill-opacity="1"><g transform="translate(490.332099, 353.621692)"><g/></g></g><g fill="#701c35" fill-opacity="1"><g transform="translate(499.196863, 353.621692)"><g><path d="M 19.421875 -23.25 L 19.421875 0 L 14.75 0 L 14.75 -1.9375 C 13.539062 -0.476562 11.789062 0.25 9.5 0.25 C 7.90625 0.25 6.46875 -0.101562 5.1875 -0.8125 C 3.90625 -1.519531 2.894531 -2.53125 2.15625 -3.84375 C 1.425781 -5.164062 1.0625 -6.691406 1.0625 -8.421875 C 1.0625 -10.160156 1.425781 -11.6875 2.15625 -13 C 2.894531 -14.3125 3.90625 -15.320312 5.1875 -16.03125 C 6.46875 -16.75 7.90625 -17.109375 9.5 -17.109375 C 11.644531 -17.109375 13.320312 -16.425781 14.53125 -15.0625 L 14.53125 -23.25 Z M 10.34375 -3.765625 C 11.570312 -3.765625 12.59375 -4.1875 13.40625 -5.03125 C 14.21875 -5.875 14.625 -7.003906 14.625 -8.421875 C 14.625 -9.847656 14.21875 -10.984375 13.40625 -11.828125 C 12.59375 -12.671875 11.570312 -13.09375 10.34375 -13.09375 C 9.082031 -13.09375 8.046875 -12.671875 7.234375 -11.828125 C 6.421875 -10.984375 6.015625 -9.847656 6.015625 -8.421875 C 6.015625 -7.003906 6.421875 -5.875 7.234375 -5.03125 C 8.046875 -4.1875 9.082031 -3.765625 10.34375 -3.765625 Z M 10.34375 -3.765625 "/></g></g></g><g fill="#701c35" fill-opacity="1"><g transform="translate(520.873253, 353.621692)"><g><path d="M 18.765625 -8.359375 C 18.765625 -8.296875 18.734375 -7.859375 18.671875 -7.046875 L 5.921875 -7.046875 C 6.148438 -6.003906 6.691406 -5.179688 7.546875 -4.578125 C 8.398438 -3.972656 9.46875 -3.671875 10.75 -3.671875 C 11.625 -3.671875 12.398438 -3.800781 13.078125 -4.0625 C 13.753906 -4.320312 14.382812 -4.734375 14.96875 -5.296875 L 17.578125 -2.46875 C 15.984375 -0.65625 13.664062 0.25 10.625 0.25 C 8.71875 0.25 7.035156 -0.117188 5.578125 -0.859375 C 4.117188 -1.597656 2.988281 -2.625 2.1875 -3.9375 C 1.394531 -5.257812 1 -6.753906 1 -8.421875 C 1 -10.078125 1.390625 -11.566406 2.171875 -12.890625 C 2.960938 -14.210938 4.039062 -15.242188 5.40625 -15.984375 C 6.769531 -16.734375 8.300781 -17.109375 10 -17.109375 C 11.644531 -17.109375 13.132812 -16.75 14.46875 -16.03125 C 15.8125 -15.320312 16.863281 -14.304688 17.625 -12.984375 C 18.382812 -11.660156 18.765625 -10.117188 18.765625 -8.359375 Z M 10.03125 -13.40625 C 8.914062 -13.40625 7.984375 -13.09375 7.234375 -12.46875 C 6.484375 -11.84375 6.023438 -10.988281 5.859375 -9.90625 L 14.15625 -9.90625 C 13.988281 -10.96875 13.53125 -11.816406 12.78125 -12.453125 C 12.03125 -13.085938 11.113281 -13.40625 10.03125 -13.40625 Z M 10.03125 -13.40625 "/></g></g></g><g fill="#701c35" fill-opacity="1"><g transform="translate(540.638868, 353.621692)"><g/></g></g><g fill="#701c35" fill-opacity="1"><g transform="translate(549.503633, 353.621692)"><g><path d="M 19.578125 -4.078125 L 19.578125 0 L 2.59375 0 L 2.59375 -21.9375 L 19.171875 -21.9375 L 19.171875 -17.859375 L 7.640625 -17.859375 L 7.640625 -13.09375 L 17.828125 -13.09375 L 17.828125 -9.140625 L 7.640625 -9.140625 L 7.640625 -4.078125 Z M 19.578125 -4.078125 "/></g></g></g><g fill="#701c35" fill-opacity="1"><g transform="translate(570.522216, 353.621692)"><g><path d="M 18.984375 -16.859375 L 11.875 0 L 6.828125 0 L -0.25 -16.859375 L 4.796875 -16.859375 L 9.46875 -5.390625 L 14.28125 -16.859375 Z M 18.984375 -16.859375 "/></g></g></g><g fill="#701c35" fill-opacity="1"><g transform="translate(589.254133, 353.621692)"><g><path d="M 9.046875 -17.109375 C 11.660156 -17.109375 13.664062 -16.484375 15.0625 -15.234375 C 16.46875 -13.992188 17.171875 -12.125 17.171875 -9.625 L 17.171875 0 L 12.59375 0 L 12.59375 -2.09375 C 11.675781 -0.53125 9.960938 0.25 7.453125 0.25 C 6.160156 0.25 5.035156 0.03125 4.078125 -0.40625 C 3.128906 -0.84375 2.40625 -1.445312 1.90625 -2.21875 C 1.40625 -3 1.15625 -3.878906 1.15625 -4.859375 C 1.15625 -6.421875 1.742188 -7.648438 2.921875 -8.546875 C 4.109375 -9.453125 5.929688 -9.90625 8.390625 -9.90625 L 12.28125 -9.90625 C 12.28125 -10.96875 11.957031 -11.785156 11.3125 -12.359375 C 10.664062 -12.929688 9.691406 -13.21875 8.390625 -13.21875 C 7.492188 -13.21875 6.613281 -13.078125 5.75 -12.796875 C 4.882812 -12.515625 4.148438 -12.132812 3.546875 -11.65625 L 1.78125 -15.0625 C 2.707031 -15.71875 3.8125 -16.222656 5.09375 -16.578125 C 6.375 -16.929688 7.691406 -17.109375 9.046875 -17.109375 Z M 8.671875 -3.03125 C 9.515625 -3.03125 10.257812 -3.222656 10.90625 -3.609375 C 11.550781 -4.003906 12.007812 -4.578125 12.28125 -5.328125 L 12.28125 -7.046875 L 8.921875 -7.046875 C 6.921875 -7.046875 5.921875 -6.390625 5.921875 -5.078125 C 5.921875 -4.453125 6.164062 -3.953125 6.65625 -3.578125 C 7.144531 -3.210938 7.816406 -3.03125 8.671875 -3.03125 Z M 8.671875 -3.03125 "/></g></g></g><g fill="#701c35" fill-opacity="1"><g transform="translate(608.581188, 353.621692)"><g><path d="M 2.25 -23.25 L 7.140625 -23.25 L 7.140625 0 L 2.25 0 Z M 2.25 -23.25 "/></g></g></g><g fill="#701c35" fill-opacity="1"><g transform="translate(618.009791, 353.621692)"><g><path d="M 19.234375 -16.859375 L 19.234375 0 L 14.59375 0 L 14.59375 -2 C 13.945312 -1.269531 13.175781 -0.710938 12.28125 -0.328125 C 11.382812 0.0546875 10.410156 0.25 9.359375 0.25 C 7.148438 0.25 5.394531 -0.382812 4.09375 -1.65625 C 2.800781 -2.9375 2.15625 -4.828125 2.15625 -7.328125 L 2.15625 -16.859375 L 7.046875 -16.859375 L 7.046875 -8.046875 C 7.046875 -5.335938 8.1875 -3.984375 10.46875 -3.984375 C 11.632812 -3.984375 12.570312 -4.363281 13.28125 -5.125 C 13.988281 -5.882812 14.34375 -7.015625 14.34375 -8.515625 L 14.34375 -16.859375 Z M 19.234375 -16.859375 "/></g></g></g><g fill="#701c35" fill-opacity="1"><g transform="translate(639.529558, 353.621692)"><g><path d="M 9.046875 -17.109375 C 11.660156 -17.109375 13.664062 -16.484375 15.0625 -15.234375 C 16.46875 -13.992188 17.171875 -12.125 17.171875 -9.625 L 17.171875 0 L 12.59375 0 L 12.59375 -2.09375 C 11.675781 -0.53125 9.960938 0.25 7.453125 0.25 C 6.160156 0.25 5.035156 0.03125 4.078125 -0.40625 C 3.128906 -0.84375 2.40625 -1.445312 1.90625 -2.21875 C 1.40625 -3 1.15625 -3.878906 1.15625 -4.859375 C 1.15625 -6.421875 1.742188 -7.648438 2.921875 -8.546875 C 4.109375 -9.453125 5.929688 -9.90625 8.390625 -9.90625 L 12.28125 -9.90625 C 12.28125 -10.96875 11.957031 -11.785156 11.3125 -12.359375 C 10.664062 -12.929688 9.691406 -13.21875 8.390625 -13.21875 C 7.492188 -13.21875 6.613281 -13.078125 5.75 -12.796875 C 4.882812 -12.515625 4.148438 -12.132812 3.546875 -11.65625 L 1.78125 -15.0625 C 2.707031 -15.71875 3.8125 -16.222656 5.09375 -16.578125 C 6.375 -16.929688 7.691406 -17.109375 9.046875 -17.109375 Z M 8.671875 -3.03125 C 9.515625 -3.03125 10.257812 -3.222656 10.90625 -3.609375 C 11.550781 -4.003906 12.007812 -4.578125 12.28125 -5.328125 L 12.28125 -7.046875 L 8.921875 -7.046875 C 6.921875 -7.046875 5.921875 -6.390625 5.921875 -5.078125 C 5.921875 -4.453125 6.164062 -3.953125 6.65625 -3.578125 C 7.144531 -3.210938 7.816406 -3.03125 8.671875 -3.03125 Z M 8.671875 -3.03125 "/></g></g></g><g fill="#701c35" fill-opacity="1"><g transform="translate(658.856636, 353.621692)"><g><path d="M 10.40625 0.25 C 8.601562 0.25 6.988281 -0.117188 5.5625 -0.859375 C 4.132812 -1.597656 3.015625 -2.625 2.203125 -3.9375 C 1.398438 -5.257812 1 -6.753906 1 -8.421875 C 1 -10.097656 1.398438 -11.59375 2.203125 -12.90625 C 3.015625 -14.21875 4.132812 -15.242188 5.5625 -15.984375 C 6.988281 -16.734375 8.601562 -17.109375 10.40625 -17.109375 C 12.175781 -17.109375 13.722656 -16.734375 15.046875 -15.984375 C 16.378906 -15.242188 17.347656 -14.1875 17.953125 -12.8125 L 14.15625 -10.78125 C 13.28125 -12.320312 12.019531 -13.09375 10.375 -13.09375 C 9.09375 -13.09375 8.035156 -12.675781 7.203125 -11.84375 C 6.367188 -11.007812 5.953125 -9.867188 5.953125 -8.421875 C 5.953125 -6.984375 6.367188 -5.847656 7.203125 -5.015625 C 8.035156 -4.179688 9.09375 -3.765625 10.375 -3.765625 C 12.039062 -3.765625 13.300781 -4.535156 14.15625 -6.078125 L 17.953125 -4.015625 C 17.347656 -2.671875 16.378906 -1.625 15.046875 -0.875 C 13.722656 -0.125 12.175781 0.25 10.40625 0.25 Z M 10.40625 0.25 "/></g></g></g><g fill="#701c35" fill-opacity="1"><g transform="translate(677.369285, 353.621692)"><g><path d="M 2.25 -16.859375 L 7.140625 -16.859375 L 7.140625 0 L 2.25 0 Z M 4.6875 -19.203125 C 3.789062 -19.203125 3.0625 -19.460938 2.5 -19.984375 C 1.9375 -20.503906 1.65625 -21.15625 1.65625 -21.9375 C 1.65625 -22.707031 1.9375 -23.351562 2.5 -23.875 C 3.0625 -24.394531 3.789062 -24.65625 4.6875 -24.65625 C 5.59375 -24.65625 6.328125 -24.40625 6.890625 -23.90625 C 7.453125 -23.40625 7.734375 -22.78125 7.734375 -22.03125 C 7.734375 -21.207031 7.453125 -20.53125 6.890625 -20 C 6.328125 -19.46875 5.59375 -19.203125 4.6875 -19.203125 Z M 4.6875 -19.203125 "/></g></g></g><g fill="#701c35" fill-opacity="1"><g transform="translate(686.797888, 353.621692)"><g><path d="M 10.28125 0.25 C 8.5 0.25 6.90625 -0.117188 5.5 -0.859375 C 4.09375 -1.597656 2.988281 -2.625 2.1875 -3.9375 C 1.394531 -5.257812 1 -6.753906 1 -8.421875 C 1 -10.097656 1.394531 -11.59375 2.1875 -12.90625 C 2.988281 -14.21875 4.09375 -15.242188 5.5 -15.984375 C 6.90625 -16.734375 8.5 -17.109375 10.28125 -17.109375 C 12.050781 -17.109375 13.632812 -16.734375 15.03125 -15.984375 C 16.4375 -15.242188 17.535156 -14.21875 18.328125 -12.90625 C 19.117188 -11.59375 19.515625 -10.097656 19.515625 -8.421875 C 19.515625 -6.753906 19.117188 -5.257812 18.328125 -3.9375 C 17.535156 -2.625 16.4375 -1.597656 15.03125 -0.859375 C 13.632812 -0.117188 12.050781 0.25 10.28125 0.25 Z M 10.28125 -3.765625 C 11.53125 -3.765625 12.554688 -4.1875 13.359375 -5.03125 C 14.160156 -5.875 14.5625 -7.003906 14.5625 -8.421875 C 14.5625 -9.847656 14.160156 -10.984375 13.359375 -11.828125 C 12.554688 -12.671875 11.53125 -13.09375 10.28125 -13.09375 C 9.019531 -13.09375 7.984375 -12.671875 7.171875 -11.828125 C 6.359375 -10.984375 5.953125 -9.847656 5.953125 -8.421875 C 5.953125 -7.003906 6.359375 -5.875 7.171875 -5.03125 C 7.984375 -4.1875 9.019531 -3.765625 10.28125 -3.765625 Z M 11.59375 -23.53125 L 16.859375 -23.53125 L 11.1875 -19.015625 L 7.359375 -19.015625 Z M 11.59375 -23.53125 "/></g></g></g><g fill="#701c35" fill-opacity="1"><g transform="translate(707.315266, 353.621692)"><g><path d="M 12.5 -17.109375 C 14.582031 -17.109375 16.265625 -16.476562 17.546875 -15.21875 C 18.835938 -13.96875 19.484375 -12.113281 19.484375 -9.65625 L 19.484375 0 L 14.59375 0 L 14.59375 -8.890625 C 14.59375 -10.234375 14.300781 -11.234375 13.71875 -11.890625 C 13.132812 -12.546875 12.289062 -12.875 11.1875 -12.875 C 9.945312 -12.875 8.960938 -12.492188 8.234375 -11.734375 C 7.503906 -10.972656 7.140625 -9.835938 7.140625 -8.328125 L 7.140625 0 L 2.25 0 L 2.25 -16.859375 L 6.921875 -16.859375 L 6.921875 -14.875 C 7.566406 -15.59375 8.367188 -16.144531 9.328125 -16.53125 C 10.296875 -16.914062 11.351562 -17.109375 12.5 -17.109375 Z M 12.5 -17.109375 "/></g></g></g><g fill="#701c35" fill-opacity="1"><g transform="translate(728.949264, 353.621692)"><g/></g></g><g fill="#701c35" fill-opacity="1"><g transform="translate(737.814028, 353.621692)"><g/></g></g><g fill="#701c35" fill-opacity="1"><g transform="translate(215.98446, 397.121689)"><g><path d="M 19.421875 -23.25 L 19.421875 0 L 14.75 0 L 14.75 -1.9375 C 13.539062 -0.476562 11.789062 0.25 9.5 0.25 C 7.90625 0.25 6.46875 -0.101562 5.1875 -0.8125 C 3.90625 -1.519531 2.894531 -2.53125 2.15625 -3.84375 C 1.425781 -5.164062 1.0625 -6.691406 1.0625 -8.421875 C 1.0625 -10.160156 1.425781 -11.6875 2.15625 -13 C 2.894531 -14.3125 3.90625 -15.320312 5.1875 -16.03125 C 6.46875 -16.75 7.90625 -17.109375 9.5 -17.109375 C 11.644531 -17.109375 13.320312 -16.425781 14.53125 -15.0625 L 14.53125 -23.25 Z M 10.34375 -3.765625 C 11.570312 -3.765625 12.59375 -4.1875 13.40625 -5.03125 C 14.21875 -5.875 14.625 -7.003906 14.625 -8.421875 C 14.625 -9.847656 14.21875 -10.984375 13.40625 -11.828125 C 12.59375 -12.671875 11.570312 -13.09375 10.34375 -13.09375 C 9.082031 -13.09375 8.046875 -12.671875 7.234375 -11.828125 C 6.421875 -10.984375 6.015625 -9.847656 6.015625 -8.421875 C 6.015625 -7.003906 6.421875 -5.875 7.234375 -5.03125 C 8.046875 -4.1875 9.082031 -3.765625 10.34375 -3.765625 Z M 10.34375 -3.765625 "/></g></g></g><g fill="#701c35" fill-opacity="1"><g transform="translate(237.660849, 397.121689)"><g><path d="M 18.765625 -8.359375 C 18.765625 -8.296875 18.734375 -7.859375 18.671875 -7.046875 L 5.921875 -7.046875 C 6.148438 -6.003906 6.691406 -5.179688 7.546875 -4.578125 C 8.398438 -3.972656 9.46875 -3.671875 10.75 -3.671875 C 11.625 -3.671875 12.398438 -3.800781 13.078125 -4.0625 C 13.753906 -4.320312 14.382812 -4.734375 14.96875 -5.296875 L 17.578125 -2.46875 C 15.984375 -0.65625 13.664062 0.25 10.625 0.25 C 8.71875 0.25 7.035156 -0.117188 5.578125 -0.859375 C 4.117188 -1.597656 2.988281 -2.625 2.1875 -3.9375 C 1.394531 -5.257812 1 -6.753906 1 -8.421875 C 1 -10.078125 1.390625 -11.566406 2.171875 -12.890625 C 2.960938 -14.210938 4.039062 -15.242188 5.40625 -15.984375 C 6.769531 -16.734375 8.300781 -17.109375 10 -17.109375 C 11.644531 -17.109375 13.132812 -16.75 14.46875 -16.03125 C 15.8125 -15.320312 16.863281 -14.304688 17.625 -12.984375 C 18.382812 -11.660156 18.765625 -10.117188 18.765625 -8.359375 Z M 10.03125 -13.40625 C 8.914062 -13.40625 7.984375 -13.09375 7.234375 -12.46875 C 6.484375 -11.84375 6.023438 -10.988281 5.859375 -9.90625 L 14.15625 -9.90625 C 13.988281 -10.96875 13.53125 -11.816406 12.78125 -12.453125 C 12.03125 -13.085938 11.113281 -13.40625 10.03125 -13.40625 Z M 10.03125 -13.40625 "/></g></g></g><g fill="#701c35" fill-opacity="1"><g transform="translate(257.426465, 397.121689)"><g/></g></g><g fill="#701c35" fill-opacity="1"><g transform="translate(266.291229, 397.121689)"><g><path d="M 12.09375 -21.9375 C 14.03125 -21.9375 15.710938 -21.609375 17.140625 -20.953125 C 18.578125 -20.304688 19.679688 -19.390625 20.453125 -18.203125 C 21.222656 -17.015625 21.609375 -15.601562 21.609375 -13.96875 C 21.609375 -12.363281 21.222656 -10.957031 20.453125 -9.75 C 19.679688 -8.550781 18.578125 -7.632812 17.140625 -7 C 15.710938 -6.363281 14.03125 -6.046875 12.09375 -6.046875 L 7.671875 -6.046875 L 7.671875 0 L 2.59375 0 L 2.59375 -21.9375 Z M 11.8125 -10.1875 C 13.332031 -10.1875 14.488281 -10.515625 15.28125 -11.171875 C 16.082031 -11.828125 16.484375 -12.757812 16.484375 -13.96875 C 16.484375 -15.207031 16.082031 -16.15625 15.28125 -16.8125 C 14.488281 -17.46875 13.332031 -17.796875 11.8125 -17.796875 L 7.671875 -17.796875 L 7.671875 -10.1875 Z M 11.8125 -10.1875 "/></g></g></g><g fill="#701c35" fill-opacity="1"><g transform="translate(289.220587, 397.121689)"><g><path d="M 6.921875 -14.625 C 7.503906 -15.445312 8.289062 -16.066406 9.28125 -16.484375 C 10.28125 -16.898438 11.425781 -17.109375 12.71875 -17.109375 L 12.71875 -12.59375 C 12.175781 -12.632812 11.8125 -12.65625 11.625 -12.65625 C 10.226562 -12.65625 9.128906 -12.265625 8.328125 -11.484375 C 7.535156 -10.703125 7.140625 -9.523438 7.140625 -7.953125 L 7.140625 0 L 2.25 0 L 2.25 -16.859375 L 6.921875 -16.859375 Z M 6.921875 -14.625 "/></g></g></g><g fill="#701c35" fill-opacity="1"><g transform="translate(302.721341, 397.121689)"><g><path d="M 10.28125 0.25 C 8.5 0.25 6.90625 -0.117188 5.5 -0.859375 C 4.09375 -1.597656 2.988281 -2.625 2.1875 -3.9375 C 1.394531 -5.257812 1 -6.753906 1 -8.421875 C 1 -10.097656 1.394531 -11.59375 2.1875 -12.90625 C 2.988281 -14.21875 4.09375 -15.242188 5.5 -15.984375 C 6.90625 -16.734375 8.5 -17.109375 10.28125 -17.109375 C 12.050781 -17.109375 13.632812 -16.734375 15.03125 -15.984375 C 16.4375 -15.242188 17.535156 -14.21875 18.328125 -12.90625 C 19.117188 -11.59375 19.515625 -10.097656 19.515625 -8.421875 C 19.515625 -6.753906 19.117188 -5.257812 18.328125 -3.9375 C 17.535156 -2.625 16.4375 -1.597656 15.03125 -0.859375 C 13.632812 -0.117188 12.050781 0.25 10.28125 0.25 Z M 10.28125 -3.765625 C 11.53125 -3.765625 12.554688 -4.1875 13.359375 -5.03125 C 14.160156 -5.875 14.5625 -7.003906 14.5625 -8.421875 C 14.5625 -9.847656 14.160156 -10.984375 13.359375 -11.828125 C 12.554688 -12.671875 11.53125 -13.09375 10.28125 -13.09375 C 9.019531 -13.09375 7.984375 -12.671875 7.171875 -11.828125 C 6.359375 -10.984375 5.953125 -9.847656 5.953125 -8.421875 C 5.953125 -7.003906 6.359375 -5.875 7.171875 -5.03125 C 7.984375 -4.1875 9.019531 -3.765625 10.28125 -3.765625 Z M 10.28125 -3.765625 "/></g></g></g><g fill="#701c35" fill-opacity="1"><g transform="translate(323.238731, 397.121689)"><g><path d="M 12.21875 -17.109375 C 13.78125 -17.109375 15.203125 -16.742188 16.484375 -16.015625 C 17.773438 -15.296875 18.785156 -14.285156 19.515625 -12.984375 C 20.242188 -11.679688 20.609375 -10.160156 20.609375 -8.421875 C 20.609375 -6.691406 20.242188 -5.171875 19.515625 -3.859375 C 18.785156 -2.554688 17.773438 -1.546875 16.484375 -0.828125 C 15.203125 -0.109375 13.78125 0.25 12.21875 0.25 C 10.0625 0.25 8.367188 -0.425781 7.140625 -1.78125 L 7.140625 6.078125 L 2.25 6.078125 L 2.25 -16.859375 L 6.921875 -16.859375 L 6.921875 -14.90625 C 8.128906 -16.375 9.894531 -17.109375 12.21875 -17.109375 Z M 11.375 -3.765625 C 12.625 -3.765625 13.648438 -4.1875 14.453125 -5.03125 C 15.265625 -5.875 15.671875 -7.003906 15.671875 -8.421875 C 15.671875 -9.847656 15.265625 -10.984375 14.453125 -11.828125 C 13.648438 -12.671875 12.625 -13.09375 11.375 -13.09375 C 10.125 -13.09375 9.09375 -12.671875 8.28125 -11.828125 C 7.476562 -10.984375 7.078125 -9.847656 7.078125 -8.421875 C 7.078125 -7.003906 7.476562 -5.875 8.28125 -5.03125 C 9.09375 -4.1875 10.125 -3.765625 11.375 -3.765625 Z M 11.375 -3.765625 "/></g></g></g><g fill="#701c35" fill-opacity="1"><g transform="translate(344.852476, 397.121689)"><g><path d="M 19.234375 -16.859375 L 19.234375 0 L 14.59375 0 L 14.59375 -2 C 13.945312 -1.269531 13.175781 -0.710938 12.28125 -0.328125 C 11.382812 0.0546875 10.410156 0.25 9.359375 0.25 C 7.148438 0.25 5.394531 -0.382812 4.09375 -1.65625 C 2.800781 -2.9375 2.15625 -4.828125 2.15625 -7.328125 L 2.15625 -16.859375 L 7.046875 -16.859375 L 7.046875 -8.046875 C 7.046875 -5.335938 8.1875 -3.984375 10.46875 -3.984375 C 11.632812 -3.984375 12.570312 -4.363281 13.28125 -5.125 C 13.988281 -5.882812 14.34375 -7.015625 14.34375 -8.515625 L 14.34375 -16.859375 Z M 19.234375 -16.859375 "/></g></g></g><g fill="#701c35" fill-opacity="1"><g transform="translate(366.372242, 397.121689)"><g><path d="M 18.765625 -8.359375 C 18.765625 -8.296875 18.734375 -7.859375 18.671875 -7.046875 L 5.921875 -7.046875 C 6.148438 -6.003906 6.691406 -5.179688 7.546875 -4.578125 C 8.398438 -3.972656 9.46875 -3.671875 10.75 -3.671875 C 11.625 -3.671875 12.398438 -3.800781 13.078125 -4.0625 C 13.753906 -4.320312 14.382812 -4.734375 14.96875 -5.296875 L 17.578125 -2.46875 C 15.984375 -0.65625 13.664062 0.25 10.625 0.25 C 8.71875 0.25 7.035156 -0.117188 5.578125 -0.859375 C 4.117188 -1.597656 2.988281 -2.625 2.1875 -3.9375 C 1.394531 -5.257812 1 -6.753906 1 -8.421875 C 1 -10.078125 1.390625 -11.566406 2.171875 -12.890625 C 2.960938 -14.210938 4.039062 -15.242188 5.40625 -15.984375 C 6.769531 -16.734375 8.300781 -17.109375 10 -17.109375 C 11.644531 -17.109375 13.132812 -16.75 14.46875 -16.03125 C 15.8125 -15.320312 16.863281 -14.304688 17.625 -12.984375 C 18.382812 -11.660156 18.765625 -10.117188 18.765625 -8.359375 Z M 10.03125 -13.40625 C 8.914062 -13.40625 7.984375 -13.09375 7.234375 -12.46875 C 6.484375 -11.84375 6.023438 -10.988281 5.859375 -9.90625 L 14.15625 -9.90625 C 13.988281 -10.96875 13.53125 -11.816406 12.78125 -12.453125 C 12.03125 -13.085938 11.113281 -13.40625 10.03125 -13.40625 Z M 10.03125 -13.40625 "/></g></g></g><g fill="#701c35" fill-opacity="1"><g transform="translate(386.137858, 397.121689)"><g><path d="M 7.921875 0.25 C 6.523438 0.25 5.15625 0.078125 3.8125 -0.265625 C 2.476562 -0.609375 1.414062 -1.039062 0.625 -1.5625 L 2.25 -5.078125 C 3.007812 -4.597656 3.921875 -4.207031 4.984375 -3.90625 C 6.046875 -3.601562 7.085938 -3.453125 8.109375 -3.453125 C 10.179688 -3.453125 11.21875 -3.960938 11.21875 -4.984375 C 11.21875 -5.460938 10.9375 -5.804688 10.375 -6.015625 C 9.8125 -6.222656 8.941406 -6.398438 7.765625 -6.546875 C 6.390625 -6.753906 5.25 -6.992188 4.34375 -7.265625 C 3.445312 -7.535156 2.671875 -8.015625 2.015625 -8.703125 C 1.359375 -9.398438 1.03125 -10.382812 1.03125 -11.65625 C 1.03125 -12.71875 1.335938 -13.660156 1.953125 -14.484375 C 2.566406 -15.316406 3.460938 -15.960938 4.640625 -16.421875 C 5.828125 -16.878906 7.222656 -17.109375 8.828125 -17.109375 C 10.023438 -17.109375 11.210938 -16.976562 12.390625 -16.71875 C 13.566406 -16.457031 14.539062 -16.09375 15.3125 -15.625 L 13.6875 -12.15625 C 12.207031 -12.988281 10.585938 -13.40625 8.828125 -13.40625 C 7.785156 -13.40625 7.003906 -13.257812 6.484375 -12.96875 C 5.960938 -12.675781 5.703125 -12.300781 5.703125 -11.84375 C 5.703125 -11.320312 5.984375 -10.957031 6.546875 -10.75 C 7.109375 -10.539062 8.003906 -10.34375 9.234375 -10.15625 C 10.617188 -9.925781 11.75 -9.675781 12.625 -9.40625 C 13.5 -9.144531 14.257812 -8.671875 14.90625 -7.984375 C 15.5625 -7.296875 15.890625 -6.335938 15.890625 -5.109375 C 15.890625 -4.066406 15.570312 -3.132812 14.9375 -2.3125 C 14.3125 -1.5 13.398438 -0.867188 12.203125 -0.421875 C 11.003906 0.0234375 9.578125 0.25 7.921875 0.25 Z M 7.921875 0.25 "/></g></g></g><g fill="#701c35" fill-opacity="1"><g transform="translate(402.771043, 397.121689)"><g><path d="M 13.125 -0.8125 C 12.644531 -0.457031 12.054688 -0.191406 11.359375 -0.015625 C 10.660156 0.160156 9.921875 0.25 9.140625 0.25 C 7.140625 0.25 5.585938 -0.257812 4.484375 -1.28125 C 3.390625 -2.300781 2.84375 -3.804688 2.84375 -5.796875 L 2.84375 -12.71875 L 0.25 -12.71875 L 0.25 -16.484375 L 2.84375 -16.484375 L 2.84375 -20.578125 L 7.734375 -20.578125 L 7.734375 -16.484375 L 11.9375 -16.484375 L 11.9375 -12.71875 L 7.734375 -12.71875 L 7.734375 -5.859375 C 7.734375 -5.148438 7.914062 -4.601562 8.28125 -4.21875 C 8.644531 -3.832031 9.164062 -3.640625 9.84375 -3.640625 C 10.613281 -3.640625 11.269531 -3.847656 11.8125 -4.265625 Z M 13.125 -0.8125 "/></g></g></g><g fill="#701c35" fill-opacity="1"><g transform="translate(416.397087, 397.121689)"><g><path d="M 9.046875 -17.109375 C 11.660156 -17.109375 13.664062 -16.484375 15.0625 -15.234375 C 16.46875 -13.992188 17.171875 -12.125 17.171875 -9.625 L 17.171875 0 L 12.59375 0 L 12.59375 -2.09375 C 11.675781 -0.53125 9.960938 0.25 7.453125 0.25 C 6.160156 0.25 5.035156 0.03125 4.078125 -0.40625 C 3.128906 -0.84375 2.40625 -1.445312 1.90625 -2.21875 C 1.40625 -3 1.15625 -3.878906 1.15625 -4.859375 C 1.15625 -6.421875 1.742188 -7.648438 2.921875 -8.546875 C 4.109375 -9.453125 5.929688 -9.90625 8.390625 -9.90625 L 12.28125 -9.90625 C 12.28125 -10.96875 11.957031 -11.785156 11.3125 -12.359375 C 10.664062 -12.929688 9.691406 -13.21875 8.390625 -13.21875 C 7.492188 -13.21875 6.613281 -13.078125 5.75 -12.796875 C 4.882812 -12.515625 4.148438 -12.132812 3.546875 -11.65625 L 1.78125 -15.0625 C 2.707031 -15.71875 3.8125 -16.222656 5.09375 -16.578125 C 6.375 -16.929688 7.691406 -17.109375 9.046875 -17.109375 Z M 8.671875 -3.03125 C 9.515625 -3.03125 10.257812 -3.222656 10.90625 -3.609375 C 11.550781 -4.003906 12.007812 -4.578125 12.28125 -5.328125 L 12.28125 -7.046875 L 8.921875 -7.046875 C 6.921875 -7.046875 5.921875 -6.390625 5.921875 -5.078125 C 5.921875 -4.453125 6.164062 -3.953125 6.65625 -3.578125 C 7.144531 -3.210938 7.816406 -3.03125 8.671875 -3.03125 Z M 8.671875 -3.03125 "/></g></g></g><g fill="#701c35" fill-opacity="1"><g transform="translate(435.724142, 397.121689)"><g><path d="M 7.921875 0.25 C 6.523438 0.25 5.15625 0.078125 3.8125 -0.265625 C 2.476562 -0.609375 1.414062 -1.039062 0.625 -1.5625 L 2.25 -5.078125 C 3.007812 -4.597656 3.921875 -4.207031 4.984375 -3.90625 C 6.046875 -3.601562 7.085938 -3.453125 8.109375 -3.453125 C 10.179688 -3.453125 11.21875 -3.960938 11.21875 -4.984375 C 11.21875 -5.460938 10.9375 -5.804688 10.375 -6.015625 C 9.8125 -6.222656 8.941406 -6.398438 7.765625 -6.546875 C 6.390625 -6.753906 5.25 -6.992188 4.34375 -7.265625 C 3.445312 -7.535156 2.671875 -8.015625 2.015625 -8.703125 C 1.359375 -9.398438 1.03125 -10.382812 1.03125 -11.65625 C 1.03125 -12.71875 1.335938 -13.660156 1.953125 -14.484375 C 2.566406 -15.316406 3.460938 -15.960938 4.640625 -16.421875 C 5.828125 -16.878906 7.222656 -17.109375 8.828125 -17.109375 C 10.023438 -17.109375 11.210938 -16.976562 12.390625 -16.71875 C 13.566406 -16.457031 14.539062 -16.09375 15.3125 -15.625 L 13.6875 -12.15625 C 12.207031 -12.988281 10.585938 -13.40625 8.828125 -13.40625 C 7.785156 -13.40625 7.003906 -13.257812 6.484375 -12.96875 C 5.960938 -12.675781 5.703125 -12.300781 5.703125 -11.84375 C 5.703125 -11.320312 5.984375 -10.957031 6.546875 -10.75 C 7.109375 -10.539062 8.003906 -10.34375 9.234375 -10.15625 C 10.617188 -9.925781 11.75 -9.675781 12.625 -9.40625 C 13.5 -9.144531 14.257812 -8.671875 14.90625 -7.984375 C 15.5625 -7.296875 15.890625 -6.335938 15.890625 -5.109375 C 15.890625 -4.066406 15.570312 -3.132812 14.9375 -2.3125 C 14.3125 -1.5 13.398438 -0.867188 12.203125 -0.421875 C 11.003906 0.0234375 9.578125 0.25 7.921875 0.25 Z M 7.921875 0.25 "/></g></g></g><g fill="#701c35" fill-opacity="1"><g transform="translate(452.357327, 397.121689)"><g/></g></g><g fill="#701c35" fill-opacity="1"><g transform="translate(461.22208, 397.121689)"><g><path d="M 12.21875 -17.109375 C 13.78125 -17.109375 15.203125 -16.742188 16.484375 -16.015625 C 17.773438 -15.296875 18.785156 -14.285156 19.515625 -12.984375 C 20.242188 -11.679688 20.609375 -10.160156 20.609375 -8.421875 C 20.609375 -6.691406 20.242188 -5.171875 19.515625 -3.859375 C 18.785156 -2.554688 17.773438 -1.546875 16.484375 -0.828125 C 15.203125 -0.109375 13.78125 0.25 12.21875 0.25 C 10.0625 0.25 8.367188 -0.425781 7.140625 -1.78125 L 7.140625 6.078125 L 2.25 6.078125 L 2.25 -16.859375 L 6.921875 -16.859375 L 6.921875 -14.90625 C 8.128906 -16.375 9.894531 -17.109375 12.21875 -17.109375 Z M 11.375 -3.765625 C 12.625 -3.765625 13.648438 -4.1875 14.453125 -5.03125 C 15.265625 -5.875 15.671875 -7.003906 15.671875 -8.421875 C 15.671875 -9.847656 15.265625 -10.984375 14.453125 -11.828125 C 13.648438 -12.671875 12.625 -13.09375 11.375 -13.09375 C 10.125 -13.09375 9.09375 -12.671875 8.28125 -11.828125 C 7.476562 -10.984375 7.078125 -9.847656 7.078125 -8.421875 C 7.078125 -7.003906 7.476562 -5.875 8.28125 -5.03125 C 9.09375 -4.1875 10.125 -3.765625 11.375 -3.765625 Z M 11.375 -3.765625 "/></g></g></g><g fill="#701c35" fill-opacity="1"><g transform="translate(482.835825, 397.121689)"><g><path d="M 10.28125 0.25 C 8.5 0.25 6.90625 -0.117188 5.5 -0.859375 C 4.09375 -1.597656 2.988281 -2.625 2.1875 -3.9375 C 1.394531 -5.257812 1 -6.753906 1 -8.421875 C 1 -10.097656 1.394531 -11.59375 2.1875 -12.90625 C 2.988281 -14.21875 4.09375 -15.242188 5.5 -15.984375 C 6.90625 -16.734375 8.5 -17.109375 10.28125 -17.109375 C 12.050781 -17.109375 13.632812 -16.734375 15.03125 -15.984375 C 16.4375 -15.242188 17.535156 -14.21875 18.328125 -12.90625 C 19.117188 -11.59375 19.515625 -10.097656 19.515625 -8.421875 C 19.515625 -6.753906 19.117188 -5.257812 18.328125 -3.9375 C 17.535156 -2.625 16.4375 -1.597656 15.03125 -0.859375 C 13.632812 -0.117188 12.050781 0.25 10.28125 0.25 Z M 10.28125 -3.765625 C 11.53125 -3.765625 12.554688 -4.1875 13.359375 -5.03125 C 14.160156 -5.875 14.5625 -7.003906 14.5625 -8.421875 C 14.5625 -9.847656 14.160156 -10.984375 13.359375 -11.828125 C 12.554688 -12.671875 11.53125 -13.09375 10.28125 -13.09375 C 9.019531 -13.09375 7.984375 -12.671875 7.171875 -11.828125 C 6.359375 -10.984375 5.953125 -9.847656 5.953125 -8.421875 C 5.953125 -7.003906 6.359375 -5.875 7.171875 -5.03125 C 7.984375 -4.1875 9.019531 -3.765625 10.28125 -3.765625 Z M 10.28125 -3.765625 "/></g></g></g><g fill="#701c35" fill-opacity="1"><g transform="translate(503.353227, 397.121689)"><g><path d="M 6.921875 -14.625 C 7.503906 -15.445312 8.289062 -16.066406 9.28125 -16.484375 C 10.28125 -16.898438 11.425781 -17.109375 12.71875 -17.109375 L 12.71875 -12.59375 C 12.175781 -12.632812 11.8125 -12.65625 11.625 -12.65625 C 10.226562 -12.65625 9.128906 -12.265625 8.328125 -11.484375 C 7.535156 -10.703125 7.140625 -9.523438 7.140625 -7.953125 L 7.140625 0 L 2.25 0 L 2.25 -16.859375 L 6.921875 -16.859375 Z M 6.921875 -14.625 "/></g></g></g><g fill="#701c35" fill-opacity="1"><g transform="translate(516.853981, 397.121689)"><g/></g></g><g fill="#701c35" fill-opacity="1"><g transform="translate(525.718734, 397.121689)"><g><path d="M 18.765625 -8.359375 C 18.765625 -8.296875 18.734375 -7.859375 18.671875 -7.046875 L 5.921875 -7.046875 C 6.148438 -6.003906 6.691406 -5.179688 7.546875 -4.578125 C 8.398438 -3.972656 9.46875 -3.671875 10.75 -3.671875 C 11.625 -3.671875 12.398438 -3.800781 13.078125 -4.0625 C 13.753906 -4.320312 14.382812 -4.734375 14.96875 -5.296875 L 17.578125 -2.46875 C 15.984375 -0.65625 13.664062 0.25 10.625 0.25 C 8.71875 0.25 7.035156 -0.117188 5.578125 -0.859375 C 4.117188 -1.597656 2.988281 -2.625 2.1875 -3.9375 C 1.394531 -5.257812 1 -6.753906 1 -8.421875 C 1 -10.078125 1.390625 -11.566406 2.171875 -12.890625 C 2.960938 -14.210938 4.039062 -15.242188 5.40625 -15.984375 C 6.769531 -16.734375 8.300781 -17.109375 10 -17.109375 C 11.644531 -17.109375 13.132812 -16.75 14.46875 -16.03125 C 15.8125 -15.320312 16.863281 -14.304688 17.625 -12.984375 C 18.382812 -11.660156 18.765625 -10.117188 18.765625 -8.359375 Z M 10.03125 -13.40625 C 8.914062 -13.40625 7.984375 -13.09375 7.234375 -12.46875 C 6.484375 -11.84375 6.023438 -10.988281 5.859375 -9.90625 L 14.15625 -9.90625 C 13.988281 -10.96875 13.53125 -11.816406 12.78125 -12.453125 C 12.03125 -13.085938 11.113281 -13.40625 10.03125 -13.40625 Z M 10.03125 -13.40625 "/></g></g></g><g fill="#701c35" fill-opacity="1"><g transform="translate(545.484349, 397.121689)"><g><path d="M 2.25 -23.25 L 7.140625 -23.25 L 7.140625 0 L 2.25 0 Z M 2.25 -23.25 "/></g></g></g><g fill="#701c35" fill-opacity="1"><g transform="translate(554.912953, 397.121689)"><g/></g></g><g fill="#701c35" fill-opacity="1"><g transform="translate(563.777706, 397.121689)"><g><path d="M 13.21875 0.375 C 10.945312 0.375 8.894531 -0.113281 7.0625 -1.09375 C 5.238281 -2.070312 3.804688 -3.421875 2.765625 -5.140625 C 1.734375 -6.867188 1.21875 -8.8125 1.21875 -10.96875 C 1.21875 -13.113281 1.734375 -15.046875 2.765625 -16.765625 C 3.804688 -18.492188 5.238281 -19.847656 7.0625 -20.828125 C 8.894531 -21.816406 10.945312 -22.3125 13.21875 -22.3125 C 15.5 -22.3125 17.546875 -21.816406 19.359375 -20.828125 C 21.179688 -19.847656 22.613281 -18.492188 23.65625 -16.765625 C 24.695312 -15.046875 25.21875 -13.113281 25.21875 -10.96875 C 25.21875 -8.8125 24.695312 -6.867188 23.65625 -5.140625 C 22.613281 -3.421875 21.179688 -2.070312 19.359375 -1.09375 C 17.546875 -0.113281 15.5 0.375 13.21875 0.375 Z M 13.21875 -3.953125 C 14.507812 -3.953125 15.675781 -4.25 16.71875 -4.84375 C 17.769531 -5.4375 18.59375 -6.265625 19.1875 -7.328125 C 19.78125 -8.390625 20.078125 -9.601562 20.078125 -10.96875 C 20.078125 -12.320312 19.78125 -13.53125 19.1875 -14.59375 C 18.59375 -15.664062 17.769531 -16.5 16.71875 -17.09375 C 15.675781 -17.6875 14.507812 -17.984375 13.21875 -17.984375 C 11.925781 -17.984375 10.753906 -17.6875 9.703125 -17.09375 C 8.660156 -16.5 7.84375 -15.664062 7.25 -14.59375 C 6.65625 -13.53125 6.359375 -12.320312 6.359375 -10.96875 C 6.359375 -9.601562 6.65625 -8.390625 7.25 -7.328125 C 7.84375 -6.265625 8.660156 -5.4375 9.703125 -4.84375 C 10.753906 -4.25 11.925781 -3.953125 13.21875 -3.953125 Z M 14.609375 -28.234375 L 19.875 -28.234375 L 14.203125 -23.71875 L 10.375 -23.71875 Z M 14.609375 -28.234375 "/></g></g></g><g fill="#701c35" fill-opacity="1"><g transform="translate(590.215387, 397.121689)"><g><path d="M 6.921875 -14.625 C 7.503906 -15.445312 8.289062 -16.066406 9.28125 -16.484375 C 10.28125 -16.898438 11.425781 -17.109375 12.71875 -17.109375 L 12.71875 -12.59375 C 12.175781 -12.632812 11.8125 -12.65625 11.625 -12.65625 C 10.226562 -12.65625 9.128906 -12.265625 8.328125 -11.484375 C 7.535156 -10.703125 7.140625 -9.523438 7.140625 -7.953125 L 7.140625 0 L 2.25 0 L 2.25 -16.859375 L 6.921875 -16.859375 Z M 6.921875 -14.625 "/></g></g></g><g fill="#701c35" fill-opacity="1"><g transform="translate(603.716118, 397.121689)"><g><path d="M 19.640625 -16.859375 L 19.640625 -2.8125 C 19.640625 0.269531 18.832031 2.5625 17.21875 4.0625 C 15.613281 5.570312 13.269531 6.328125 10.1875 6.328125 C 8.550781 6.328125 7.003906 6.128906 5.546875 5.734375 C 4.085938 5.335938 2.875 4.765625 1.90625 4.015625 L 3.859375 0.5 C 4.566406 1.082031 5.460938 1.546875 6.546875 1.890625 C 7.628906 2.234375 8.71875 2.40625 9.8125 2.40625 C 11.5 2.40625 12.742188 2.023438 13.546875 1.265625 C 14.347656 0.503906 14.75 -0.644531 14.75 -2.1875 L 14.75 -2.90625 C 13.476562 -1.507812 11.707031 -0.8125 9.4375 -0.8125 C 7.882812 -0.8125 6.46875 -1.148438 5.1875 -1.828125 C 3.90625 -2.503906 2.882812 -3.457031 2.125 -4.6875 C 1.375 -5.925781 1 -7.347656 1 -8.953125 C 1 -10.566406 1.375 -11.988281 2.125 -13.21875 C 2.882812 -14.445312 3.90625 -15.398438 5.1875 -16.078125 C 6.46875 -16.765625 7.882812 -17.109375 9.4375 -17.109375 C 11.875 -17.109375 13.726562 -16.300781 15 -14.6875 L 15 -16.859375 Z M 10.40625 -4.828125 C 11.695312 -4.828125 12.753906 -5.207031 13.578125 -5.96875 C 14.398438 -6.726562 14.8125 -7.722656 14.8125 -8.953125 C 14.8125 -10.191406 14.398438 -11.191406 13.578125 -11.953125 C 12.753906 -12.710938 11.695312 -13.09375 10.40625 -13.09375 C 9.101562 -13.09375 8.035156 -12.710938 7.203125 -11.953125 C 6.367188 -11.191406 5.953125 -10.191406 5.953125 -8.953125 C 5.953125 -7.722656 6.367188 -6.726562 7.203125 -5.96875 C 8.035156 -5.207031 9.101562 -4.828125 10.40625 -4.828125 Z M 10.40625 -4.828125 "/></g></g></g><g fill="#701c35" fill-opacity="1"><g transform="translate(625.643088, 397.121689)"><g><path d="M 9.046875 -17.109375 C 11.660156 -17.109375 13.664062 -16.484375 15.0625 -15.234375 C 16.46875 -13.992188 17.171875 -12.125 17.171875 -9.625 L 17.171875 0 L 12.59375 0 L 12.59375 -2.09375 C 11.675781 -0.53125 9.960938 0.25 7.453125 0.25 C 6.160156 0.25 5.035156 0.03125 4.078125 -0.40625 C 3.128906 -0.84375 2.40625 -1.445312 1.90625 -2.21875 C 1.40625 -3 1.15625 -3.878906 1.15625 -4.859375 C 1.15625 -6.421875 1.742188 -7.648438 2.921875 -8.546875 C 4.109375 -9.453125 5.929688 -9.90625 8.390625 -9.90625 L 12.28125 -9.90625 C 12.28125 -10.96875 11.957031 -11.785156 11.3125 -12.359375 C 10.664062 -12.929688 9.691406 -13.21875 8.390625 -13.21875 C 7.492188 -13.21875 6.613281 -13.078125 5.75 -12.796875 C 4.882812 -12.515625 4.148438 -12.132812 3.546875 -11.65625 L 1.78125 -15.0625 C 2.707031 -15.71875 3.8125 -16.222656 5.09375 -16.578125 C 6.375 -16.929688 7.691406 -17.109375 9.046875 -17.109375 Z M 8.671875 -3.03125 C 9.515625 -3.03125 10.257812 -3.222656 10.90625 -3.609375 C 11.550781 -4.003906 12.007812 -4.578125 12.28125 -5.328125 L 12.28125 -7.046875 L 8.921875 -7.046875 C 6.921875 -7.046875 5.921875 -6.390625 5.921875 -5.078125 C 5.921875 -4.453125 6.164062 -3.953125 6.65625 -3.578125 C 7.144531 -3.210938 7.816406 -3.03125 8.671875 -3.03125 Z M 8.671875 -3.03125 "/></g></g></g><g fill="#701c35" fill-opacity="1"><g transform="translate(644.970143, 397.121689)"><g><path d="M 12.5 -17.109375 C 14.582031 -17.109375 16.265625 -16.476562 17.546875 -15.21875 C 18.835938 -13.96875 19.484375 -12.113281 19.484375 -9.65625 L 19.484375 0 L 14.59375 0 L 14.59375 -8.890625 C 14.59375 -10.234375 14.300781 -11.234375 13.71875 -11.890625 C 13.132812 -12.546875 12.289062 -12.875 11.1875 -12.875 C 9.945312 -12.875 8.960938 -12.492188 8.234375 -11.734375 C 7.503906 -10.972656 7.140625 -9.835938 7.140625 -8.328125 L 7.140625 0 L 2.25 0 L 2.25 -16.859375 L 6.921875 -16.859375 L 6.921875 -14.875 C 7.566406 -15.59375 8.367188 -16.144531 9.328125 -16.53125 C 10.296875 -16.914062 11.351562 -17.109375 12.5 -17.109375 Z M 12.5 -17.109375 "/></g></g></g><g fill="#701c35" fill-opacity="1"><g transform="translate(666.615222, 397.121689)"><g><path d="M 10.28125 0.25 C 8.5 0.25 6.90625 -0.117188 5.5 -0.859375 C 4.09375 -1.597656 2.988281 -2.625 2.1875 -3.9375 C 1.394531 -5.257812 1 -6.753906 1 -8.421875 C 1 -10.097656 1.394531 -11.59375 2.1875 -12.90625 C 2.988281 -14.21875 4.09375 -15.242188 5.5 -15.984375 C 6.90625 -16.734375 8.5 -17.109375 10.28125 -17.109375 C 12.050781 -17.109375 13.632812 -16.734375 15.03125 -15.984375 C 16.4375 -15.242188 17.535156 -14.21875 18.328125 -12.90625 C 19.117188 -11.59375 19.515625 -10.097656 19.515625 -8.421875 C 19.515625 -6.753906 19.117188 -5.257812 18.328125 -3.9375 C 17.535156 -2.625 16.4375 -1.597656 15.03125 -0.859375 C 13.632812 -0.117188 12.050781 0.25 10.28125 0.25 Z M 10.28125 -3.765625 C 11.53125 -3.765625 12.554688 -4.1875 13.359375 -5.03125 C 14.160156 -5.875 14.5625 -7.003906 14.5625 -8.421875 C 14.5625 -9.847656 14.160156 -10.984375 13.359375 -11.828125 C 12.554688 -12.671875 11.53125 -13.09375 10.28125 -13.09375 C 9.019531 -13.09375 7.984375 -12.671875 7.171875 -11.828125 C 6.359375 -10.984375 5.953125 -9.847656 5.953125 -8.421875 C 5.953125 -7.003906 6.359375 -5.875 7.171875 -5.03125 C 7.984375 -4.1875 9.019531 -3.765625 10.28125 -3.765625 Z M 10.28125 -3.765625 "/></g></g></g><g fill="#701c35" fill-opacity="1"><g transform="translate(687.1326, 397.121689)"><g/></g></g><g fill="#701c35" fill-opacity="1"><g transform="translate(695.997376, 397.121689)"><g><path d="M 19.421875 -23.25 L 19.421875 0 L 14.75 0 L 14.75 -1.9375 C 13.539062 -0.476562 11.789062 0.25 9.5 0.25 C 7.90625 0.25 6.46875 -0.101562 5.1875 -0.8125 C 3.90625 -1.519531 2.894531 -2.53125 2.15625 -3.84375 C 1.425781 -5.164062 1.0625 -6.691406 1.0625 -8.421875 C 1.0625 -10.160156 1.425781 -11.6875 2.15625 -13 C 2.894531 -14.3125 3.90625 -15.320312 5.1875 -16.03125 C 6.46875 -16.75 7.90625 -17.109375 9.5 -17.109375 C 11.644531 -17.109375 13.320312 -16.425781 14.53125 -15.0625 L 14.53125 -23.25 Z M 10.34375 -3.765625 C 11.570312 -3.765625 12.59375 -4.1875 13.40625 -5.03125 C 14.21875 -5.875 14.625 -7.003906 14.625 -8.421875 C 14.625 -9.847656 14.21875 -10.984375 13.40625 -11.828125 C 12.59375 -12.671875 11.570312 -13.09375 10.34375 -13.09375 C 9.082031 -13.09375 8.046875 -12.671875 7.234375 -11.828125 C 6.421875 -10.984375 6.015625 -9.847656 6.015625 -8.421875 C 6.015625 -7.003906 6.421875 -5.875 7.234375 -5.03125 C 8.046875 -4.1875 9.082031 -3.765625 10.34375 -3.765625 Z M 10.34375 -3.765625 "/></g></g></g><g fill="#701c35" fill-opacity="1"><g transform="translate(717.673765, 397.121689)"><g><path d="M 18.765625 -8.359375 C 18.765625 -8.296875 18.734375 -7.859375 18.671875 -7.046875 L 5.921875 -7.046875 C 6.148438 -6.003906 6.691406 -5.179688 7.546875 -4.578125 C 8.398438 -3.972656 9.46875 -3.671875 10.75 -3.671875 C 11.625 -3.671875 12.398438 -3.800781 13.078125 -4.0625 C 13.753906 -4.320312 14.382812 -4.734375 14.96875 -5.296875 L 17.578125 -2.46875 C 15.984375 -0.65625 13.664062 0.25 10.625 0.25 C 8.71875 0.25 7.035156 -0.117188 5.578125 -0.859375 C 4.117188 -1.597656 2.988281 -2.625 2.1875 -3.9375 C 1.394531 -5.257812 1 -6.753906 1 -8.421875 C 1 -10.078125 1.390625 -11.566406 2.171875 -12.890625 C 2.960938 -14.210938 4.039062 -15.242188 5.40625 -15.984375 C 6.769531 -16.734375 8.300781 -17.109375 10 -17.109375 C 11.644531 -17.109375 13.132812 -16.75 14.46875 -16.03125 C 15.8125 -15.320312 16.863281 -14.304688 17.625 -12.984375 C 18.382812 -11.660156 18.765625 -10.117188 18.765625 -8.359375 Z M 10.03125 -13.40625 C 8.914062 -13.40625 7.984375 -13.09375 7.234375 -12.46875 C 6.484375 -11.84375 6.023438 -10.988281 5.859375 -9.90625 L 14.15625 -9.90625 C 13.988281 -10.96875 13.53125 -11.816406 12.78125 -12.453125 C 12.03125 -13.085938 11.113281 -13.40625 10.03125 -13.40625 Z M 10.03125 -13.40625 "/></g></g></g><g fill="#701c35" fill-opacity="1"><g transform="translate(737.439404, 397.121689)"><g/></g></g><g fill="#701c35" fill-opacity="1"><g transform="translate(746.30418, 397.121689)"><g><path d="M 17.421875 -11.3125 L 22.0625 -11.3125 L 22.0625 -2.40625 C 20.863281 -1.507812 19.476562 -0.820312 17.90625 -0.34375 C 16.34375 0.132812 14.769531 0.375 13.1875 0.375 C 10.914062 0.375 8.867188 -0.109375 7.046875 -1.078125 C 5.234375 -2.046875 3.804688 -3.390625 2.765625 -5.109375 C 1.734375 -6.835938 1.21875 -8.789062 1.21875 -10.96875 C 1.21875 -13.132812 1.734375 -15.078125 2.765625 -16.796875 C 3.804688 -18.523438 5.242188 -19.875 7.078125 -20.84375 C 8.921875 -21.820312 10.988281 -22.3125 13.28125 -22.3125 C 15.207031 -22.3125 16.953125 -21.984375 18.515625 -21.328125 C 20.078125 -20.679688 21.394531 -19.742188 22.46875 -18.515625 L 19.203125 -15.5 C 17.640625 -17.15625 15.75 -17.984375 13.53125 -17.984375 C 12.132812 -17.984375 10.890625 -17.691406 9.796875 -17.109375 C 8.710938 -16.523438 7.867188 -15.695312 7.265625 -14.625 C 6.660156 -13.5625 6.359375 -12.34375 6.359375 -10.96875 C 6.359375 -9.601562 6.660156 -8.390625 7.265625 -7.328125 C 7.867188 -6.265625 8.707031 -5.4375 9.78125 -4.84375 C 10.863281 -4.25 12.09375 -3.953125 13.46875 -3.953125 C 14.9375 -3.953125 16.253906 -4.265625 17.421875 -4.890625 Z M 17.421875 -11.3125 "/></g></g></g><g fill="#701c35" fill-opacity="1"><g transform="translate(770.455194, 397.121689)"><g><path d="M 10.28125 0.25 C 8.5 0.25 6.90625 -0.117188 5.5 -0.859375 C 4.09375 -1.597656 2.988281 -2.625 2.1875 -3.9375 C 1.394531 -5.257812 1 -6.753906 1 -8.421875 C 1 -10.097656 1.394531 -11.59375 2.1875 -12.90625 C 2.988281 -14.21875 4.09375 -15.242188 5.5 -15.984375 C 6.90625 -16.734375 8.5 -17.109375 10.28125 -17.109375 C 12.050781 -17.109375 13.632812 -16.734375 15.03125 -15.984375 C 16.4375 -15.242188 17.535156 -14.21875 18.328125 -12.90625 C 19.117188 -11.59375 19.515625 -10.097656 19.515625 -8.421875 C 19.515625 -6.753906 19.117188 -5.257812 18.328125 -3.9375 C 17.535156 -2.625 16.4375 -1.597656 15.03125 -0.859375 C 13.632812 -0.117188 12.050781 0.25 10.28125 0.25 Z M 10.28125 -3.765625 C 11.53125 -3.765625 12.554688 -4.1875 13.359375 -5.03125 C 14.160156 -5.875 14.5625 -7.003906 14.5625 -8.421875 C 14.5625 -9.847656 14.160156 -10.984375 13.359375 -11.828125 C 12.554688 -12.671875 11.53125 -13.09375 10.28125 -13.09375 C 9.019531 -13.09375 7.984375 -12.671875 7.171875 -11.828125 C 6.359375 -10.984375 5.953125 -9.847656 5.953125 -8.421875 C 5.953125 -7.003906 6.359375 -5.875 7.171875 -5.03125 C 7.984375 -4.1875 9.019531 -3.765625 10.28125 -3.765625 Z M 10.28125 -3.765625 "/></g></g></g><g fill="#701c35" fill-opacity="1"><g transform="translate(790.972572, 397.121689)"><g><path d="M 12.21875 -17.109375 C 13.78125 -17.109375 15.203125 -16.742188 16.484375 -16.015625 C 17.773438 -15.296875 18.785156 -14.285156 19.515625 -12.984375 C 20.242188 -11.679688 20.609375 -10.160156 20.609375 -8.421875 C 20.609375 -6.691406 20.242188 -5.171875 19.515625 -3.859375 C 18.785156 -2.554688 17.773438 -1.546875 16.484375 -0.828125 C 15.203125 -0.109375 13.78125 0.25 12.21875 0.25 C 9.894531 0.25 8.128906 -0.476562 6.921875 -1.9375 L 6.921875 0 L 2.25 0 L 2.25 -23.25 L 7.140625 -23.25 L 7.140625 -15.0625 C 8.367188 -16.425781 10.0625 -17.109375 12.21875 -17.109375 Z M 11.375 -3.765625 C 12.625 -3.765625 13.648438 -4.1875 14.453125 -5.03125 C 15.265625 -5.875 15.671875 -7.003906 15.671875 -8.421875 C 15.671875 -9.847656 15.265625 -10.984375 14.453125 -11.828125 C 13.648438 -12.671875 12.625 -13.09375 11.375 -13.09375 C 10.125 -13.09375 9.09375 -12.671875 8.28125 -11.828125 C 7.476562 -10.984375 7.078125 -9.847656 7.078125 -8.421875 C 7.078125 -7.003906 7.476562 -5.875 8.28125 -5.03125 C 9.09375 -4.1875 10.125 -3.765625 11.375 -3.765625 Z M 11.375 -3.765625 "/></g></g></g><g fill="#701c35" fill-opacity="1"><g transform="translate(812.58634, 397.121689)"><g><path d="M 2.25 -16.859375 L 7.140625 -16.859375 L 7.140625 0 L 2.25 0 Z M 4.6875 -19.203125 C 3.789062 -19.203125 3.0625 -19.460938 2.5 -19.984375 C 1.9375 -20.503906 1.65625 -21.15625 1.65625 -21.9375 C 1.65625 -22.707031 1.9375 -23.351562 2.5 -23.875 C 3.0625 -24.394531 3.789062 -24.65625 4.6875 -24.65625 C 5.59375 -24.65625 6.328125 -24.40625 6.890625 -23.90625 C 7.453125 -23.40625 7.734375 -22.78125 7.734375 -22.03125 C 7.734375 -21.207031 7.453125 -20.53125 6.890625 -20 C 6.328125 -19.46875 5.59375 -19.203125 4.6875 -19.203125 Z M 4.6875 -19.203125 "/></g></g></g><g fill="#701c35" fill-opacity="1"><g transform="translate(822.014943, 397.121689)"><g><path d="M 18.765625 -8.359375 C 18.765625 -8.296875 18.734375 -7.859375 18.671875 -7.046875 L 5.921875 -7.046875 C 6.148438 -6.003906 6.691406 -5.179688 7.546875 -4.578125 C 8.398438 -3.972656 9.46875 -3.671875 10.75 -3.671875 C 11.625 -3.671875 12.398438 -3.800781 13.078125 -4.0625 C 13.753906 -4.320312 14.382812 -4.734375 14.96875 -5.296875 L 17.578125 -2.46875 C 15.984375 -0.65625 13.664062 0.25 10.625 0.25 C 8.71875 0.25 7.035156 -0.117188 5.578125 -0.859375 C 4.117188 -1.597656 2.988281 -2.625 2.1875 -3.9375 C 1.394531 -5.257812 1 -6.753906 1 -8.421875 C 1 -10.078125 1.390625 -11.566406 2.171875 -12.890625 C 2.960938 -14.210938 4.039062 -15.242188 5.40625 -15.984375 C 6.769531 -16.734375 8.300781 -17.109375 10 -17.109375 C 11.644531 -17.109375 13.132812 -16.75 14.46875 -16.03125 C 15.8125 -15.320312 16.863281 -14.304688 17.625 -12.984375 C 18.382812 -11.660156 18.765625 -10.117188 18.765625 -8.359375 Z M 10.03125 -13.40625 C 8.914062 -13.40625 7.984375 -13.09375 7.234375 -12.46875 C 6.484375 -11.84375 6.023438 -10.988281 5.859375 -9.90625 L 14.15625 -9.90625 C 13.988281 -10.96875 13.53125 -11.816406 12.78125 -12.453125 C 12.03125 -13.085938 11.113281 -13.40625 10.03125 -13.40625 Z M 10.03125 -13.40625 "/></g></g></g><g fill="#701c35" fill-opacity="1"><g transform="translate(841.780582, 397.121689)"><g><path d="M 6.921875 -14.625 C 7.503906 -15.445312 8.289062 -16.066406 9.28125 -16.484375 C 10.28125 -16.898438 11.425781 -17.109375 12.71875 -17.109375 L 12.71875 -12.59375 C 12.175781 -12.632812 11.8125 -12.65625 11.625 -12.65625 C 10.226562 -12.65625 9.128906 -12.265625 8.328125 -11.484375 C 7.535156 -10.703125 7.140625 -9.523438 7.140625 -7.953125 L 7.140625 0 L 2.25 0 L 2.25 -16.859375 L 6.921875 -16.859375 Z M 6.921875 -14.625 "/></g></g></g><g fill="#701c35" fill-opacity="1"><g transform="translate(855.281314, 397.121689)"><g><path d="M 12.5 -17.109375 C 14.582031 -17.109375 16.265625 -16.476562 17.546875 -15.21875 C 18.835938 -13.96875 19.484375 -12.113281 19.484375 -9.65625 L 19.484375 0 L 14.59375 0 L 14.59375 -8.890625 C 14.59375 -10.234375 14.300781 -11.234375 13.71875 -11.890625 C 13.132812 -12.546875 12.289062 -12.875 11.1875 -12.875 C 9.945312 -12.875 8.960938 -12.492188 8.234375 -11.734375 C 7.503906 -10.972656 7.140625 -9.835938 7.140625 -8.328125 L 7.140625 0 L 2.25 0 L 2.25 -16.859375 L 6.921875 -16.859375 L 6.921875 -14.875 C 7.566406 -15.59375 8.367188 -16.144531 9.328125 -16.53125 C 10.296875 -16.914062 11.351562 -17.109375 12.5 -17.109375 Z M 12.5 -17.109375 "/></g></g></g><g fill="#701c35" fill-opacity="1"><g transform="translate(876.926392, 397.121689)"><g><path d="M 10.28125 0.25 C 8.5 0.25 6.90625 -0.117188 5.5 -0.859375 C 4.09375 -1.597656 2.988281 -2.625 2.1875 -3.9375 C 1.394531 -5.257812 1 -6.753906 1 -8.421875 C 1 -10.097656 1.394531 -11.59375 2.1875 -12.90625 C 2.988281 -14.21875 4.09375 -15.242188 5.5 -15.984375 C 6.90625 -16.734375 8.5 -17.109375 10.28125 -17.109375 C 12.050781 -17.109375 13.632812 -16.734375 15.03125 -15.984375 C 16.4375 -15.242188 17.535156 -14.21875 18.328125 -12.90625 C 19.117188 -11.59375 19.515625 -10.097656 19.515625 -8.421875 C 19.515625 -6.753906 19.117188 -5.257812 18.328125 -3.9375 C 17.535156 -2.625 16.4375 -1.597656 15.03125 -0.859375 C 13.632812 -0.117188 12.050781 0.25 10.28125 0.25 Z M 10.28125 -3.765625 C 11.53125 -3.765625 12.554688 -4.1875 13.359375 -5.03125 C 14.160156 -5.875 14.5625 -7.003906 14.5625 -8.421875 C 14.5625 -9.847656 14.160156 -10.984375 13.359375 -11.828125 C 12.554688 -12.671875 11.53125 -13.09375 10.28125 -13.09375 C 9.019531 -13.09375 7.984375 -12.671875 7.171875 -11.828125 C 6.359375 -10.984375 5.953125 -9.847656 5.953125 -8.421875 C 5.953125 -7.003906 6.359375 -5.875 7.171875 -5.03125 C 7.984375 -4.1875 9.019531 -3.765625 10.28125 -3.765625 Z M 10.28125 -3.765625 "/></g></g></g></svg>